<mxfile host="app.diagrams.net" modified="2024-02-29T09:49:25.439Z" agent="Mozilla/5.0 (Windows NT 10.0; Win64; x64) AppleWebKit/537.36 (KHTML, like Gecko) Chrome/122.0.0.0 Safari/537.36 Edg/122.0.0.0" etag="f-flbaOmgT884c05zW7U" version="23.1.7" type="github">
  <diagram name="Support Center" id="5uPr9Setmxzf4RtWtK03">
    <mxGraphModel dx="2087" dy="1038" grid="0" gridSize="10" guides="1" tooltips="1" connect="1" arrows="1" fold="1" page="1" pageScale="1" pageWidth="850" pageHeight="1100" math="0" shadow="0">
      <root>
        <mxCell id="0" />
        <mxCell id="1" parent="0" />
        <mxCell id="FUMP1IapKdVBmDOGwnnk-182" value="" style="rounded=0;whiteSpace=wrap;html=1;dashed=1;dashPattern=12 12;" vertex="1" parent="1">
          <mxGeometry x="617" y="1562" width="226" height="430" as="geometry" />
        </mxCell>
        <mxCell id="FUMP1IapKdVBmDOGwnnk-183" value="" style="rounded=0;whiteSpace=wrap;html=1;dashed=1;dashPattern=12 12;" vertex="1" parent="1">
          <mxGeometry x="6" y="1562" width="337" height="430" as="geometry" />
        </mxCell>
        <mxCell id="FUMP1IapKdVBmDOGwnnk-181" value="" style="rounded=0;whiteSpace=wrap;html=1;dashed=1;dashPattern=12 12;" vertex="1" parent="1">
          <mxGeometry x="351" y="1562" width="260" height="430" as="geometry" />
        </mxCell>
        <mxCell id="SEXcfhhlSHA96ujIO-18-19" style="edgeStyle=orthogonalEdgeStyle;rounded=1;orthogonalLoop=1;jettySize=auto;html=1;" parent="1" source="SEXcfhhlSHA96ujIO-18-1" edge="1">
          <mxGeometry relative="1" as="geometry">
            <mxPoint x="181" y="124" as="targetPoint" />
          </mxGeometry>
        </mxCell>
        <mxCell id="SEXcfhhlSHA96ujIO-18-31" style="edgeStyle=orthogonalEdgeStyle;rounded=1;orthogonalLoop=1;jettySize=auto;html=1;" parent="1" target="SEXcfhhlSHA96ujIO-18-30" edge="1">
          <mxGeometry relative="1" as="geometry">
            <mxPoint x="134" y="124" as="sourcePoint" />
            <mxPoint x="172.00000000000006" y="272" as="targetPoint" />
            <Array as="points">
              <mxPoint x="155" y="124" />
              <mxPoint x="155" y="272" />
            </Array>
          </mxGeometry>
        </mxCell>
        <mxCell id="SEXcfhhlSHA96ujIO-18-49" style="edgeStyle=orthogonalEdgeStyle;rounded=1;orthogonalLoop=1;jettySize=auto;html=1;entryX=0;entryY=0.5;entryDx=0;entryDy=0;" parent="1" source="SEXcfhhlSHA96ujIO-18-1" target="SEXcfhhlSHA96ujIO-18-28" edge="1">
          <mxGeometry relative="1" as="geometry">
            <Array as="points">
              <mxPoint x="155" y="124" />
              <mxPoint x="155" y="198" />
            </Array>
          </mxGeometry>
        </mxCell>
        <mxCell id="SEXcfhhlSHA96ujIO-18-1" value="Support Center" style="rounded=1;whiteSpace=wrap;html=1;" parent="1" vertex="1">
          <mxGeometry x="25" y="109" width="120" height="30" as="geometry" />
        </mxCell>
        <mxCell id="SEXcfhhlSHA96ujIO-18-50" style="edgeStyle=orthogonalEdgeStyle;rounded=1;orthogonalLoop=1;jettySize=auto;html=1;entryX=0;entryY=0.5;entryDx=0;entryDy=0;" parent="1" source="SEXcfhhlSHA96ujIO-18-27" target="SEXcfhhlSHA96ujIO-18-32" edge="1">
          <mxGeometry relative="1" as="geometry">
            <Array as="points">
              <mxPoint x="310" y="124" />
              <mxPoint x="310" y="45" />
            </Array>
          </mxGeometry>
        </mxCell>
        <mxCell id="SEXcfhhlSHA96ujIO-18-51" style="edgeStyle=orthogonalEdgeStyle;rounded=1;orthogonalLoop=1;jettySize=auto;html=1;entryX=0;entryY=0.5;entryDx=0;entryDy=0;" parent="1" source="SEXcfhhlSHA96ujIO-18-27" target="SEXcfhhlSHA96ujIO-18-33" edge="1">
          <mxGeometry relative="1" as="geometry">
            <Array as="points">
              <mxPoint x="310" y="124" />
              <mxPoint x="310" y="84" />
            </Array>
          </mxGeometry>
        </mxCell>
        <mxCell id="SEXcfhhlSHA96ujIO-18-52" style="edgeStyle=orthogonalEdgeStyle;rounded=1;orthogonalLoop=1;jettySize=auto;html=1;entryX=0;entryY=0.5;entryDx=0;entryDy=0;" parent="1" source="SEXcfhhlSHA96ujIO-18-27" target="SEXcfhhlSHA96ujIO-18-34" edge="1">
          <mxGeometry relative="1" as="geometry">
            <Array as="points">
              <mxPoint x="324" y="124" />
              <mxPoint x="324" y="124" />
            </Array>
          </mxGeometry>
        </mxCell>
        <mxCell id="SEXcfhhlSHA96ujIO-18-27" value="Asset Management" style="rounded=1;whiteSpace=wrap;html=1;" parent="1" vertex="1">
          <mxGeometry x="183" y="109" width="120" height="30" as="geometry" />
        </mxCell>
        <mxCell id="60mvIXCYYZBU1uluNazb-1" style="edgeStyle=orthogonalEdgeStyle;rounded=1;orthogonalLoop=1;jettySize=auto;html=1;entryX=0;entryY=0.5;entryDx=0;entryDy=0;" parent="1" source="SEXcfhhlSHA96ujIO-18-28" target="SEXcfhhlSHA96ujIO-18-35" edge="1">
          <mxGeometry relative="1" as="geometry">
            <Array as="points">
              <mxPoint x="316" y="198" />
              <mxPoint x="316" y="170" />
            </Array>
          </mxGeometry>
        </mxCell>
        <mxCell id="60mvIXCYYZBU1uluNazb-2" style="edgeStyle=orthogonalEdgeStyle;rounded=1;orthogonalLoop=1;jettySize=auto;html=1;entryX=0;entryY=0.5;entryDx=0;entryDy=0;" parent="1" source="SEXcfhhlSHA96ujIO-18-28" target="SEXcfhhlSHA96ujIO-18-37" edge="1">
          <mxGeometry relative="1" as="geometry">
            <Array as="points">
              <mxPoint x="316" y="198" />
              <mxPoint x="316" y="217" />
            </Array>
          </mxGeometry>
        </mxCell>
        <mxCell id="SEXcfhhlSHA96ujIO-18-28" value="Ticket Management" style="rounded=1;whiteSpace=wrap;html=1;" parent="1" vertex="1">
          <mxGeometry x="183" y="183" width="120" height="30" as="geometry" />
        </mxCell>
        <mxCell id="60mvIXCYYZBU1uluNazb-4" style="edgeStyle=orthogonalEdgeStyle;rounded=1;orthogonalLoop=1;jettySize=auto;html=1;entryX=0;entryY=0.5;entryDx=0;entryDy=0;" parent="1" source="SEXcfhhlSHA96ujIO-18-30" target="SEXcfhhlSHA96ujIO-18-39" edge="1">
          <mxGeometry relative="1" as="geometry">
            <Array as="points">
              <mxPoint x="314" y="272" />
              <mxPoint x="314" y="302" />
            </Array>
          </mxGeometry>
        </mxCell>
        <mxCell id="60mvIXCYYZBU1uluNazb-6" style="edgeStyle=orthogonalEdgeStyle;rounded=1;orthogonalLoop=1;jettySize=auto;html=1;entryX=0;entryY=0.5;entryDx=0;entryDy=0;" parent="1" source="SEXcfhhlSHA96ujIO-18-30" target="SEXcfhhlSHA96ujIO-18-38" edge="1">
          <mxGeometry relative="1" as="geometry">
            <Array as="points">
              <mxPoint x="314" y="272" />
              <mxPoint x="314" y="260" />
            </Array>
          </mxGeometry>
        </mxCell>
        <mxCell id="SEXcfhhlSHA96ujIO-18-30" value="Booking Management" style="rounded=1;whiteSpace=wrap;html=1;" parent="1" vertex="1">
          <mxGeometry x="183" y="257" width="120" height="30" as="geometry" />
        </mxCell>
        <mxCell id="SEXcfhhlSHA96ujIO-18-32" value="CRUD Asset" style="rounded=1;whiteSpace=wrap;html=1;" parent="1" vertex="1">
          <mxGeometry x="330" y="30" width="120" height="30" as="geometry" />
        </mxCell>
        <mxCell id="SEXcfhhlSHA96ujIO-18-33" value="Request for reservation" style="rounded=1;whiteSpace=wrap;html=1;" parent="1" vertex="1">
          <mxGeometry x="330" y="69" width="120" height="30" as="geometry" />
        </mxCell>
        <mxCell id="SEXcfhhlSHA96ujIO-18-34" value="Approve/Reject" style="rounded=1;whiteSpace=wrap;html=1;" parent="1" vertex="1">
          <mxGeometry x="330" y="109" width="120" height="30" as="geometry" />
        </mxCell>
        <mxCell id="SEXcfhhlSHA96ujIO-18-35" value="CRUD help ticket" style="rounded=1;whiteSpace=wrap;html=1;" parent="1" vertex="1">
          <mxGeometry x="331" y="155" width="120" height="30" as="geometry" />
        </mxCell>
        <mxCell id="SEXcfhhlSHA96ujIO-18-37" value="Approve/Reject" style="rounded=1;whiteSpace=wrap;html=1;" parent="1" vertex="1">
          <mxGeometry x="331" y="202" width="120" height="30" as="geometry" />
        </mxCell>
        <mxCell id="SEXcfhhlSHA96ujIO-18-38" value="CRUD Meeting Room" style="rounded=1;whiteSpace=wrap;html=1;" parent="1" vertex="1">
          <mxGeometry x="330" y="245" width="120" height="30" as="geometry" />
        </mxCell>
        <mxCell id="SEXcfhhlSHA96ujIO-18-39" value="Request for meeting" style="rounded=1;whiteSpace=wrap;html=1;" parent="1" vertex="1">
          <mxGeometry x="330" y="287" width="120" height="30" as="geometry" />
        </mxCell>
        <mxCell id="60mvIXCYYZBU1uluNazb-21" style="edgeStyle=orthogonalEdgeStyle;rounded=1;orthogonalLoop=1;jettySize=auto;html=1;" parent="1" source="60mvIXCYYZBU1uluNazb-10" edge="1">
          <mxGeometry relative="1" as="geometry">
            <mxPoint x="132.9122699938323" y="402.5" as="targetPoint" />
          </mxGeometry>
        </mxCell>
        <mxCell id="60mvIXCYYZBU1uluNazb-10" value="" style="outlineConnect=0;fontColor=#232F3E;gradientColor=none;fillColor=#232F3D;strokeColor=none;dashed=0;verticalLabelPosition=bottom;verticalAlign=top;align=center;html=1;fontSize=12;fontStyle=0;aspect=fixed;pointerEvents=1;shape=mxgraph.aws4.user;rounded=1;" parent="1" vertex="1">
          <mxGeometry x="54" y="383" width="39" height="39" as="geometry" />
        </mxCell>
        <mxCell id="60mvIXCYYZBU1uluNazb-18" style="edgeStyle=orthogonalEdgeStyle;rounded=1;orthogonalLoop=1;jettySize=auto;html=1;startArrow=classic;startFill=1;" parent="1" source="60mvIXCYYZBU1uluNazb-11" edge="1">
          <mxGeometry relative="1" as="geometry">
            <mxPoint x="161.875" y="463.59256998697913" as="targetPoint" />
          </mxGeometry>
        </mxCell>
        <mxCell id="60mvIXCYYZBU1uluNazb-20" style="edgeStyle=orthogonalEdgeStyle;rounded=1;orthogonalLoop=1;jettySize=auto;html=1;" parent="1" source="60mvIXCYYZBU1uluNazb-11" edge="1">
          <mxGeometry relative="1" as="geometry">
            <mxPoint x="224.87657335069434" y="402.5" as="targetPoint" />
          </mxGeometry>
        </mxCell>
        <mxCell id="60mvIXCYYZBU1uluNazb-11" value="" style="shape=image;verticalLabelPosition=bottom;labelBackgroundColor=default;verticalAlign=top;aspect=fixed;imageAspect=0;image=data:image/png,iVBORw0KGgoAAAANSUhEUgAAAOoAAADaCAYAAACo7t7jAAAAAXNSR0IArs4c6QAAAARnQU1BAACxjwv8YQUAAAAJcEhZcwAADsMAAA7DAcdvqGQAAGDfSURBVHhe7b0HtCbVdSa6b759O+cADd3QxCZHAUKAhMAyEpKVsOU0lu23bD9bfg5rHJYtayzJM/Z4ed7YY896XkuemffGWRFhCQloMogoMghogqAbuukcb75vfzuc2hX+cG/n7vrqntr77HROVZ39n/r///x1OyYYVKNGjcManUZr1KhxGKNO1Bo1jgDUiVqjxhGAOlFr1DgCUCdqjRpHAOpErVHjCECdqDVqHAGoE7VGjSMAdaLWqHEEoE7UGhmwSK1ep3ZYol5CeBhheOcQ7Xh9Kw1uGaTuad00e8VcmrZwumkPDCZGx2nw1W009Pp2Gtk+RB2dHdQ9u5emnTKf+pbPMqsahxp1oh5ijHOirLv3NXrl5hdo4xNvcZLuZSkuSQf1TO+heacvpJM+dDotv+Yk6pvTLz77A+NDY7T7qQ206/G3aXTrIE2Ms7DDhgKTjq4O6l0yg2ZevIymnT5fErjGoUOdqIcQI3tG6MHP3UGvf+clToQG70L46kyMj9PcMxbStf/9RuqfN2CKqWN8aJQ2ffkFGnpjB14PGNhVDAOIuEw/ZyHNvf5k6uiu3ykdKtRn/hBheOcwfe9zazhJX26cpADPch1dnbT1B+/Qdz79Ndr64mZTTA3jw2O0+Rsv0tAPt1uSAk1eq9lm99MbafvdP6SJsSZ2NQ4o6kQ9BBgfGaOH/+Pd9Oq3fxBuKTkJUuIoJmRjCnlHh7x/vf8Pb6PRvSOinyzwfnTLzS/S4Ctb+cqHS+/5J41ZyYHb/t462nHP69z5krLGQUCdqAcZEzzQn/m7x+V2t7O7y6SWG7zT5PQUNdi7E+y38My65v+6hQa34r3sJMDO2+54lfa+tEWSXqNlJDYnKNTxnnXno2/Je9oaBx91oh5E4OOAl77yLD3xVw9KwoosZEQuOYE4wwrPeqZvPvA6PfaX98sHUe0At6zb736ddn1/A19xC4qmCs21AuJs+c5a2v3Uxkn71tg31Il6EPHWA2/Q9//rg9TZ08XjPJs1SwkK2KQHjVimWXWCZ+IOeukbz9Fjf/UAjY+1TtadD6+nHQ++mWJOBf6RI95Pb8XM/DLPzDUOGupEPUh454m36O7f+hYN7x6SZGsHySpNgpnn+Pg4Pfmlh+gHX3naJBXgWXvPs+/Q9nt/qDMpnBska8MesUKTFIzaje8do01ffYEGX9sORY2DgDpRDwLw3egDf3QHjQ6Ocs2yrgUkNwSYTWVP4yJlKsoJ+brkob+4m1694yUIStjzwmba8q2X2VQCKJy2gtmBaI9Dv5HzPJFvueVlGtk8yffKNaaEOlEPMHa/vYtu/6Vv0PbXttpYb50pYsG7OIMq7eAkBYek5ZmN6fCeYbrzD75Nbz3Gt7YONsFKo63fXatfqXiQZgg2Ma8B5b0vusehjO4YpA3/+xkaeWePyGocONSJeoDx8J/cRVtefKflyh4Mfy8Krfkmdb0HTTMrpjXohnYN0m2/903a/uY20Q/zi8Omr/2AxgfHpA6oZzVcJ5R36CkKmnM+CyAa2fDp8fjuEdr0jRflK6caBw71yqQDhJHdw/Ton99HL33tWR7PMtRzqD7pKnWdJigYTQzUnMPMqnScE5e30TFacNYS+pHPfZCG7l1HI1sH1bcJPBGF56IpqMjkUcM0OZkF6vzXe/xMWvjR06lrZq/Ka+xX1DPqAcJz/98T9NJXy0mK4V6CmKhGE0MhqciJoPMmPhvSBEVyQuJJCpsJvpKbX95IG/7x2eZJGjvgucYbWO+B75XLNJKUQo33OpsMr9tJW27l98M1DgjqRN3PmBgbpxe//Aw986VHS7e7NqyNymjXYgNe96C84dMaqGRz6hvXJVk1SZGwPQPddMU159L06U0W7mcNSPE1+Mi0xHr25oxNlj+cEva+uJU2f51vuYfq2+D9jTpR9zPefvhNeuhP7pbFCBjisUROoQkS9cpHGrdsJh3DXIok5W2sY5wuuWI1LVw0V6IIOIDGzOAxs32eSzMkqIiwQ3Z6nUszsOnuZzfR9nvfaG1bY1KoE3U/YuMT6+m+P7xdVh3lx2lxlCsPq2z+8pThvfxlNj5rQiKU635LjKV9l155Fi1aPM/k4iZJI7ERCzKXszRr1cF1LCj2pYWgfsue8wVM3gis3vnQOtp21+v1Iv79iDpR9xN2vrGd7v73t9KeTbvDWPaBCoEKXZKnYc87SU5mZf6MdUlWnUWxjY6P0dkXrqITViyFpwCtpGR1ylA2CMCLoXhYcdZ0nrg5FOsG8bPCbjseXEe7n9zA9Qb2NSaFOlH3A/a8s5vu/f3v0N6Ne9JElA3obARHicOTUPY8qGM9bpqkmqBOz7rgJDpp1XGySkkQAkuugUZhMSnjrCk02jLaSDI3SSF8x4qt33mFdj1RrwveH6gTdR8xvGuYHvjcHfTOk2/zwM8N1xwgSTkskNFsXEZVanse7LrZTMp1lFFOzFVnLKfVZ5/MudahzXIxIsja8mQsarlAJnIg37u2wK6Vk65hnN8CbL3tVRp8vV5quK+oE3UfgN93Pvrn99L6B16XH3c7fNyCegGy8Yy0cx3v8ccJk+pckJDYZO5k3m97xybGaMWpy+isc1fRGBbkwzwHFZTErWZPUVQnq5haAZ/qgNMCXIyFEO/86/O0F7+BrTFl1Ik6ReADoyf/9mH5KsYkYd9o/BZtvJ7nPEmRpvgaRjfMpGO0dPkCuvDSM6jLfvgNP48XEb9wSXBRKUkd1fLsdp4R8r1RlCLwdc2Wf1tLI/I8qBpTQZ2oU8Tabz5Pz/yPx6izpzyTVkF1SB/lnGpSal14qVuCmg4UM+nCpXPpkstXSzD1zpDV9V40fp4siYnSDsxMzL1EhHr1/GsmyV8dRrcN0tv/4yka5vfxNSaPOlGngNfvWEsP/Ic1NDaCeU7htBk07ZRq7qAuNeF9Q2IiMubRMU5YJOmc+TPoXVeeTd3d3RKjMRAYRBpQvk1IdzTP87NoCFMQ58KLfxQIzIMDju8Z4Zn1ZRrbMaSyGm2jTtRJYucb2+h7n18jieVjsDQ2DSr30es1psIKJ/u4+XtR4fn2GvX+6b307qvPo97eHjh6qAYzGqTVmoaweAnsXsxxj1g0BZIMn2rBUDI2wuqcrENv7qANf/8Mje2e2nOfjlXUiToJbH15M936C1+lvS2fV4SBqQW3oLEGZKmokmw2VQ2SUwpvnqT908LSQPuYF1uCZJaVKG+FYCrJ6CEYknNWgGBqCt65QSwlz1DnZB3ZtJe2fPtleWxpjfZQJ2qbwJLA+z97O+3ZuLvFT9Y0fXyISjpxRSmSULXYhNoMKre7XHyDlDon6Iqrz6U5c2eJr8Ip+sCFq9qbRn0KcrZFGOuCFlN7eCMiDuqkT36C2KZbu0HytOKEd6zCUsNNX39RPjmv0Rp1oraBIZ5B1/z6LbTpmQ0myQOJpXts2eB1efqiU+B24YMkSVZNWLwnlWTmJL38KiTpTNa7r8MSwuSqL9o4gpzd8N4z6yEDYZhYxKQTL+ufoOhUoh6hAaIpF7zY7X1xC2294zWcCNXVaIg6UVsADw974v95mN687zVZV5tGmux1Ux5DtTxYkUOppA11TUz9+kWTFkkK2XjnOF34rjNo6XELxU8hXvzHbWgwQ2LyqBJDFlytmuu1U4F/opRTFj0cLjdwH6WbEBdNA7DUcCse7l0na1PUidoE+LL+ib9+iF7456fsdtcHY/Y1SxyEScYQXqrg4sYSDGLe8D50zKjOqOM0OjZK5198Gp24cqnYJYijM23Ac8bNjcZq0SQhGkU+oeRhMLkRPVONATN5XjAn665H31JhjUrUidoASJLXbnuJnv6fj5lEB1aWboYwEl3qFjL5mUSlfruLlHSJ1iBHqp553ko6edXx2QyjJs1HfBHmWqRedRTrAnlx4JKURati+pnezYrmFXATRAGPu5bN38a6YCziF1WNAupEbYAfrnmFHvjjO3ng2C1qmyMo2WHAy6BXGTh/LykpaXH9Peno+CitOn05nXX2KrMTB7FPI7oVzFz+BQYoZMybOAFqLwJXuoOU6BENtHgXkwhwWkDRxNvNmbNwy3dfob1r66WGVagTtQKbn9tID37xThodHGk09nLIbJTDXotvzPPIlo1pmlUtWfEu9cRVS+ic80KSRlTJmoHN3QOunhgxQbwk5CoR0Yt5s3MpUHT1OqjzsQ8uBy9yM8Lzgjf+M9YF60PaamSoE7UAPNbz9s/cTINb9uRHo8NHnkGrlnyxuAxbqCMpkZ76PanOpFi/e/GlZ1HVQ9AaIvYDPJdC17JEMECfa6Ho4IESquqBGC32uuooPIr4cIENeI8hYCEeZbP55hfrdcEF1IkagH+8dN8f3S6/L9WRpPIcDaMwjjEBBpow2HNBnUeiJKmkpW2WpPgd6YJFs+miS89MH7C2BWvYB73wXBBDqEgUwUQgfBIwE5U5z8Anm3wnUXNVDAM+1b0SDRi5BC1gdPsQvf0/n67XBQfUiWoY3TtKa37j3+RxKvIJLwZSflzqeLMBJsSSEMkIiepcBrXykpbCM+cyTtaZ86bTu6+5gHp7W63fVWhMqwRAJEljOjfJmaIiAaySUxYhxsrmkMmci6fIvSArnDpBVd8rwa84Y7uGadNXXqifF2yoExXgAfTwn99Dbz/2ZrbqSEa+Di7/6lLE4JXNjUZNP99CnR1909tdXWg/Y/Y0uuzdZ1FP+NeLTcFB0VxoUuB9SX2qQqnDoNGzSZQKMxCP4OrYL5FH5WQhJ32Chjbspg3/7zP1In5GnaiMx//mQfrBvz5Nnd2dKSFlrMSRZiMxkxmXs2MOdd75Jje8XNeZVHWdvZ105TXn08yZ09WtCllIKVJNfVCgGhMkB/NT48QEGj3zUXAMOZcCYA1Vsf1ifdJIbXIUfkXEe/ahN3bQplvq5wUf84mKBMUPwHXVkUIGagJXIEDxR60wrzaajMp5yTZNTn0/ig0/V+ue1kVXXnUeDQy09/xdjwtom5oMwSSP6FACFO5tRsLyTorWWyUbzIS6C2goyaAZkgN4qwuMeiDuDJYavoPbYPknW8cmjt1E5THw1iNvyC0vXr19zAhkpKaaQmQ6hFWTOYBIKnIQ5bnYQBOZyMflbF96eeH5uwYxF8ZoQEycqM75eEnIVQyIBDkoF2cngWI/23cv9AfvIYQqyaNoS7Tr6Y20/f43j9mlhsdsom54Yj3d+dvfsn+FCPAAkFHo1OADScRIOq2opW6OJOP3oKD6jhQzK++RpFespsWL50ucHLgq45Zp1DhfsM7q5pOhaAlAFg5CCKjzSgCXuijWXVZss3go1YCR9YFZOX53jH2JgQvAbfD2+9+grWtek69wjjUck4m6++2ddN8f3UZD2wcxArJxHBHGdhxKkBeHVTZrZlTfm8JGk/WcC1bRCScuMQ9DCooYIZ7RpoARSlXfkyJSI8YmGuChoqfLIBCXCr8yzEgOCsWigGfojxeUyyPXoiDXHFd2PLCOdj25EWsxTXhs4JhL1L2bdtMdv3ELbX/dl6phIGUX3TlPnKTxMWQCJKPTCX7vqnUtOj4hwSe8E3TGOSvo5FXL5YkNJcCWSXHIliwhkGIODtSVaU69WkC0Qon90OOwChD5HIoKjgJHuU2wiGICHozax7MGeM3rEUnG53Dzv71MO4+xdcHHVKIO7xyi7/3Hu2jTcxvlVioiXvPK6w8hlziMhMefiUB8sT02fJi0aNlcOvucVenWNiHwUZXvlSH6lSzcO8hz9oxiPaAYLSVm9Gnir7AocJaCCsskGJfUiCgSIPYS4fWcNVdS6LEJ2nLrsbUu+JhJ1LHhMXroz+6mV29/SZMmwAdEbmAUAJ0nqVIu8uca3ngkxW14bIROO+PE7En2DB+7jkI1x+eVsZKzYuCAWBbFbm4yV0UqhXcuSwnignaQs0WEYppxvXjQBpcEywxB6f3x6KjiEaQb/vm5Y2Zd8DGRqHiMynP/8AStveX5/EyKMWRsY4QRUwCS0WNo8b3OptNm9tH8+bMzA4YPNAA09CZDsM8Ay2hdaVQpAoqeCUHRwLU54J8yG9SLA3xsvRrxxSFFiGEYSQ5wyInhcflv58PvHP1LDY/+ROUr+4OvPEOP/MU9Mhj8YkvBrik09SJc4nKfRVXDm9XxnenSZQuop6eba8G+AU1GSRARlSjFtOMCUoEodj6XNuaeiiAx1ZATiQJeRdnJrEpK1ylSLYjh5SEL5mUE/ejWIXrrS0/SyFGerEd9oq578HV67K8eoI7OzpbXX2EJJ1smyVMuvBMqEtRd53ScZs2enhkwAiuoGtJlFL2AgqzKxCAJYAXAmg3pahSW0E7PPHIReVmjZlxWpE2NI1zG3cDzgt/5+os0tnPYhEcfjupE3fjUW/SdX/4aDe8aqrzWGTQtdatAadyylchgzT488o2DUOr4gLezUx8VmnO3hIYiJUwlGioUrg5m0SOqU/u5yiSAjsLX+y6IfB5RE5vzEHixyPUpOjSC21XZcjAsNVz/d0/SGCft0YijNlF3b9hJ933uduaqRqZfbU3NluMkGCRrHnF5P67Jn8qx37p9p3xwlbcrCUJdPTMUDF3t4oIaRxpFOTOr5HKtGdxQaIhc8i8HLPYj1UOIlv0QIysAglQCBqzkEz26aS9t/uZL/N716PvFzVGZqPiu9Jaf+Rd5YHb+AutV1+tfTLRqlK10uaEjixUeeGb0jXVv0xieW6tGhbEWbb24ReBd1QCuKplEvyb+TVGZTS7LjqaqKWhdjjDZIocMkIjUnRzFOgQlWQT0XPgOZtfT79DGL79AEyNH1+qloy5R8QnvA1+8k3at35H9ZI3hSVROvGq4FQYY+MyLOVngUIRK3Laro5O2bdtJm7Zk3/XpuC97ZkPWdFV2oepstEjevMvlV+TbAexzAUK/DGJiMtdEq5y1Vfw9fAQkInXnJAASY/B6wRCrnjwnWYRP9Xc/v5m23PYq193nyMdRlaijQ6N0/x/fod+VdukM5xswmcuWjR3d5xCrzhdMgJ7OHnruxbXyXjUzqBrS0Rl6g4knwldK0QNSj+Z1QQjRGh4xIgZQvbcR23HPXHMsRF3s3KAK0Lm+mV0J3prO0Z19HdQzt4f6lvRR/3F91Le0j3q5vvOR9bTtrqPnecFHVaI+/XeP0ks3P2tJOnn42KlObZcZsvGSaNTjlR2JuvaVN+n5ta9wHac6F8HgAUzns0Aw7TAZ9rHZZOIuLkiKFoCD2IJaaYJCT1MdiK7CI5xWqwHndBDR0vkY3QEdF55FO/s7qY8Ts/+4fuqd30Pd07uoi2WgqE87sZ8GX95Iu/Gf4I8CHBWJiufCvvi1Z+n7f/sQ16oucHPo5bdBICWNoBJEWjnAyi2j3kXdtObeh+n1deslectxuQ6Rl4yUEJv1xEgJ0sgpwp1zQFTreepfdbCi1OvSh6pDi4DOC5B47Bq1G2SuYtozq4v6l/ZSV1+ndrkCmG87e/k2+Il1NPjSJvYrxj6ycFQkKr4r/d6f3iW3OYV5rxKwiMX3GYr1YIe/pG4+c2Ow9HR0U19nH3333gdo45YtOrOKE48w0EIAVItjz80KphWCFoj5EDM8sc5oD4KFSLxfqX9QRKOIKEeJTkXbZJCMWGRGIKae4PeiXTxj9szvtRe9Crg9wBRmOx9+g4bf3mnCIxNHdqLyhcB3pff8wXdpZO9I7jpXwa9fhnhVy3CtWyRLa6f8olDuAJK1l2+Bx4eIvnbbGktW2BV9M3ibXiSqmzttF8UBLwAT+1oMqkem7wIzS7HinYQsujBixHyFkexjtBjE6iLiHc5RUKPN7hld1LeYkzSOWtjEUoGJkTHatuZlGl6/wyRHHo7oRN29cRfd+bvflsd8lgaGQa9fNtNm17J8VcWWd0JFwnDGqbXj8bRqQibgMMB9UzG/n+rqpfFBolvuvIt27d2bdKmdIoJCEgPmDY0rAFuxZ0cEKHyy4/1XlPuizamVnxPsShNZcAqsVkqCBmDVhPxmlYs2DAE0ArB4zlTfQptJRW+l0J/MK+PlE+eRcdp+36s0tvPIfFDaEZuouzfsojt++xba+eb20sWKUBX2KH514+VUJEkxlteZenJFd2WxD4YBGFiQdCJZO3tpDw+Ur91+hyQrRr1b53rkFdDITwrubI5CsiD5XkKe9QUomCc+5I8CTi4r6kqAgRdvjSn+bG1jKT4DHxJNW9qXPcY1osIeIn8hEsrnWVaL7Rqmrd9+gUa3Hnnrgo/IRMVP1u793G208cm30nelfr30InnRLZOUkTTVaparhex9FMnY0nYFNs1ABg5V5d1GuS4+3dO6ptG2LTvp5rvulA/BIhp1oSGqHNBHkWdt52k19AhDSDBwSYIKQOf6SAs+et5i+yEw6+wUiyS+9xQxV/sWcZKGh88VYZGMihcXtpdzYRRgdmz3MO2451U60p4QccQlKp5x9OB/uks+QKpKUt17aYyyhdVcKAZawV4+NvKxwqwObEvMoFLOajJjdqoEb6y43skUybrx7a30zXvuotEx/ONFhseQSpuAgwzGQL3tFKhIlSsWANQmNoXTKhR1uc6DemGV65JI5XByzmnWOA/O7g4aOK6fOnv8mPKApVrby0w6F8YLnGYY2byHtnzrBRrfc+Qs4j+yEpXP+ZN/9wg9+8/f92q4DPGClC9s3rYB5OJq0cerMIdQzIiv7Az+yg8ZWKsqi4TE3jckq8rAYWad3j2NXn1tPX33ew+yRMOFMdoC6BCKVRMg8FKGS62rIog8SrVnQCkIEB2jAYrpkt4gMv3/7B7KrFPBTIr3phG4Krqhwns5aezZ/skT85GNu2jHA68fMTPrkZOofD5f+Poz9PT/eoy67DeeImxKlctq5bpeYC4yYvQV3kVpBAX47W+aRSVhtWBDXajVocYsajXZoOvq6KIBTtYXXnqV7nz0EYvRLswWnZgCkheHaTsCDKNxyRECPbYMLDM7EHfxnIoyeCWe75T6l/TKe9NoIzQKHJNJ0mA69MNttP2eV46IRfxHTKK+fvcrdM8ffkeWCSr8jDe+SE0vn19cG1eopvegEVHEtvIeiv8ysXIWJiFLSdzy4kR7mmazbXdHN03vGqDHn3mBHn3+WbFuCjQlHdVq1onEMPIxxMUKNNEypyzCZUV9KUgV2EjOZb4vRVfXpiaM6Z3XQ13T/cWYwbFUnyR5frIIroNrt9CuJ9cf9jPrEZGo7zy3ge7/wh38ngX/pwUntPqkuqbSQoRBysmCxMyJMXLi2IpBjBdbLmoWHTwNmUMyGwUn71KZx8yqs6tScD2dSNZpdM9Dj9LjLzxLXZ0VlwSNol1vKtexDCrNdNEquQJQVIfI5HDI2Vil5FeQ28mUfeQDLQEKFG6zb0EPdc/qNmPecQw5nxIrdxSGBjKPWSxFsOmeZ96mXY+to4mxKoPDA4d9om57ZQt99zM3y3emVWfaxkLlNUiAkdyr4qKqZcPZ08UV199e1wUV3gZ1tJS1pM1mUWyJt1tiJCs+YLr3scdp7ZtvsMSAPqaGwDduFXA/WEU3L+JuitRGEayo1hWlIViuZbTj8jxihOjtip7Z3dQ9uwcBTKT7RvEUBV0ucJtg+91Pv0WDLx++Sw0P60TF4z3v+dx3ac87O3OrUXLXgq9l81PLWhsI2QyayRqCTcRWim5S0Z0h+zBECu90FkUSKoUGiQmayTlB3U7m1U7q6eihnvFe+todd9DadW+wD7sIYnuAxnJo/xRKEdMsgmsxSq5eUMpYTTJnitQgtn5eRWI9KCN5inG+IElxy+tB5BopG1AS5JHULewc0Yx5fLi09wecrIchDttEHdoxSGt+79v09vfXyaCuQu5yVFwbfyXGXtgYxu2NxqqXSlgW5HtktYKjmupe5k5mJS2ZwY2vzKyB7+3qoV7qo+/c/wCtf2eT+ZahaZHvI3i1tqQRvoxSRDd0p5wjKvCIRoaCbT6uKgomipKA5BcvPUjSHGK7AS7y4FJn2wrTSuT8AgX4ferOR96gISyiOcxw2Cbqo391P71576vU2ZV1MZ7f7EQb4yNFXokzS9mbiSDylXADUC8BUYTMSwDvBXtPQuVh69+lZjrdIt/b2UtjgxP0L7d9lzbv2C46hzbrt4UM70foYmKDLCKnb2CTB4yy41I/3nE1uruVy1IfHeKnbET3AB/zIiwNNEFCNA5tx0YcPgYiosj5CjNBkOMT4G23v0zDbx1e64IPu0QdGxmjx/7mQXr2n57MDYbSOS5eMEtOWYiCUuVYCIK5x7xSXVEwNKitQmjRjNvFgJPEdLAgbdwx2SwxwcvsiveqRvFkCKwL7hgh+sbdd9K2nfjVh8bzqN4s2lKGCwvT61PsVxUfZYKiUdHAZEFsuZqzjtT5ZsDP1Hpl/a4JiuAgooqJ2E5g2DTqXDsYHZfVS6NbDp+lhoddor5+51p64kv6/0rTOfYTHk+2jRQR24VM1zPaFSD2UqJxo5GSIYYUPrlkvkg82fPI880UWkMyphTVum8pcW3r7+qnHdt205fX3EZDI8Ol3oKKLDGKrDeMorHwBQeBe7kRYLybcwEBTJPqCWaXM4w0AKuN+pZykoY7poQQo51rmsNk7SPchw8Ojx7d+m8v0Bi/BTsccPgkKl+RV+94me76g1vluUc5YFR4wZVDYT5+KCQriIyvAq6BX4cyylqvNfSzEZQlvCPvgdTL0pHrMn0wL0nKKckzqFgItWQ1vr+zn3Zu38sz6xoaGi4sd8s3k5BEzkQb4ZudKJXroTGfjjFD5HNRigqvR7mho5vs52rRkAG2wr5tTMXXfSI1fmxwjLbf9QqN7z30/0D5sEnUnet30r3/4TZZcJ9GgA2UDHar6mOoOCC8BKgoCiuMGC6N2rIVEC2KcLknIjapcR0UicgnnRMRMvkwSWhIVikq6+7oomk8s765biN98967CP8mowqyQKlZtwRVBiZDXImtRU6rtaX7jALQA1GWQ0MF+/KdUv+yfl0aCLtY2kHRJ5Z2UOXTyJcPdHjDbtpyy/OH/L+dHxaJunXtZvq3X/gXGuLZQ5AGjgKDRgtXZBSJOKM+cgKgUnV0cod9g0cqz6ZZR0SD7GSZSpGI2OspD1LdkJypxhySmAvWBQ90D9Cb6zfSbQ89KP9wyk+Nt5a7m/DOleBG0YDrwVbicgFBL5SWYWYC0XulBXA8+E0pFtu365MQG20Xbu++k/T3Yx/dupd23PcaTRTv9A4iDnmijuwZprv/6Lu0I/36ns8mzlC6loWzi6qfQafBBKzNu1ZgFAwqUK1VaZaM4MqpWQQGuFKFUCSd8LznP509MbOCWmGpz6TQYy+bz6yd0+iJ51+kux57FCEEub606liE2KoD9l4c0k+W6L6AgsBfNJqCbXC8fUt6qGuazaQOKBoBdl4mC/hUHkAZbuJN4Zj8RUvAfcRSQ9wGH6pkPaSJiv/4/d1fv5k2Pv1Wdk7tJAnPQqc5iDCjnkJadaUjq4OrKnnkJdp06wR1vdKsw5jtUNPB71QTU6luSFLUNXkxo1oRGT4N7qJZvdPpqR+8SA8+8yRCKRp2DApTpmxyym2JOluw4VAvtzNEdxirUSZvhKDHkwG7+rEEtIDUN0O7savgPkVaBdPlmgcf6jl3fj89+OpW2vXomyY4uDhkiYofTT/y3+6nNx94ja89X30bLXIbJ0yguTNmYDtVRWWVYeMQeahFfq/RW/sCauvdd+TrWsMMKhQbElPkOouC1xlVZ94kk5m1h3o7eumuRx6jJ156QeSC1MHYW9XpB27gTQ5ibg73AKIqylMlJ2wBCyaP85zZrZVGQNzJxI79ib5txkifc0gl8C2w68m3OVnXHfTnBR+SRMXi50c5SV/48lPU2dPJJ40HeThpCRXnAiIp4lBhYHBNYwugGCPjm/tlnlqw12RQP93n8iEmp1SV801nUsg5Mbl08gwKG7kVRoENFyw1nNU7g+5+9DF64XU8Lzi2Yrw2z0BkQM9vdo69n4oYIZlwifK2EQPwXSKWBvZgkX0VYOP2U0GbvtIM77y5FkOnDD9xTPBJ9e4n3qK9z21Q2UHCIUnUF29+Vr4rHfdXJZCqURHGnZfINQNcG1sVY+jAdUljPyBLS7UsWhfrapk/PK6xmSepJpvXnMPFQdKCtzTlhMWHS3iwd9d4F33j7rvolfVvmn9s13nuK5qyKqyAomWsB9c8bYZgK2dH6hPUPbtLnlovDQebVByRb4Yq3ybw5Ez2bfrlUPTloBPj47TzwTdo70ubpX4wcNAT9Yd3r6X7/3QNt8xXLwwigY8kQzrRCa1PCiy8lOFS+4F4KO0Ag9A/YpEB6R2WAOUomQQ/qcOeN3ORBJQkDBtm07Qpj2SVD5k6dVaFDzg8K3igc4Buufdu2rB1k/gCcj7RiJ289AN3BlSitgI+wZWA0dy1aYScD58daxu/J+2d1yuqYty2ANtiaQPJ3O2Lfs3i2DlTaiU5RB6qCfkkeGjdwXle8EFN1A1Prqe7/ui7NLpnNDvuwihyMYrCuUwSEbVli7JWU6xs2QyZT2F4y4VkhGNI19jqCbDRMWxVd1Ko2jZPYKfY2E9TNUtmPC94Ypjoy3fcThu2YBG/xkmNMMDFbgDF+r4hHw0DGA/J7l/YI68Xk0ZVh5vATXMubfkXjHDOUoeLHa+Wp3XBB2ER/0FLVPy/0jt+51s0uKXwDF6cL66D6KlzLpNkNEN7WjSkKealGfR9b2aLunoDGisBrIngJkUUBtcDrERiQSYzjkHSDcmYEtJkoC4zivepXNHZFe9ZrfR19dHI3jH62t1raFBWL2n8XF8qIHo3amUM2LkRJBaML/XkM8UMPnPAd6Xoa0t4HFAvbSC5mU+RtgW3hZP4cH+FuiLC60U5S4ZGadudr9D47gP7oLSDkqh7Nu2m237rm7RzXf4ZvH5Ksg+GyiciorVVXhvTrC3w4FJ784qDLV1QA64rRDApFgfsYeRxoUMVfAASUYWgkpbCywdMQu022HSarKrD1zZIVjwv+J9uv5V27cVCcmi0eYEzScCokrVC0d++e/Kzlnv+bjOIr7K5mAFV6uTGOxkyU0XyjUHAtwjqJgXT8d0jtPnm52l084FbxH/AExXrdu/549v4tlefwSvHx9dRU6hwxBVozyJSRcmnQRCIyyof5lxcaWNPpBCDEZnZiNAoEMeqyEwv8qhUaNr55heGeU5IpXrbiwRVa51RweEXN1hquGXLDrr5/rtpfGJcmkqASxREvtyVPGAr9hZE+BCAj01qfG37FjZ//q4YBtdmkNbMNrkwI8slJwv4pGBSUT4B9dhv4920yiWCzcd2DNG2uw7c/2Q9oImKdbv3feF2en3Ny1mSMvwWczIoe0DiM2amVWkFCuceiC8WHknqpRGiIpk9IZNYEIBYYBGG/rCDR1VZhqwtQP01PbUmyWkzJrY0s6Y6J6nUbXblDTMrkvWtt9+hr9+7hsbs4d4SNTZX7kwGOUhQrQrVbjGiEHs/Om6fkxMzaen5u1DH0ia8GwLzrbgkzWF+OQcPUgnTiQ/vmplWge1HN+6mzV97Th7yvb9xwBIVCxqe/afv0/NffVp+yqTHLWdBuCq4xq2qLTON613i9dbwQVaEyXi8CWe0dH1Rl2TSKgTZsM18c/AYTJFsbqCc8YiZJLyFZJUNSWlJKjOs6JGsyvsjSF/54Xq6/dEHud/VR9kY2o/itJUdmb7Y6iffKoEOM+lUF9m7mVDeybnWwO0Dtn6RUpKJMJQmSGo7/snC/dl9ZMNu2nHf6zRR+C8I+4oDk6jc8ee//BQ9+Bf3cOdxcRufrKK02sqRaZvblQF79Sl4hmq81kKxS9fODUG5yIBQ3jWA8x6jFTyCm/PpkiYtNS0ZQSHzOVU3n1GFR7LyJsnKM+vTL71Md33/EZG1heJBoMA1dyDOG+W7pGmL++S9ac6/BVIUY4TwLoVITCPAAA5WHIkNskZwk0gnd9GyEsHnbOiVrbR9zf59XvD+T1Q+2LefWE8P/d+cpHIQ2DUeLDIWrJThGi2x1grRttLTWetaGjRMkRRlFxYWLmRO3QLRNvPJ0sipcEg+EyiBncqM0wSVuiarJq3sqauzm5N1gB577gV6+IVnJEIejXrtvUSrTO14rSsMtJwBixm6BirW7zZBiq6hVeB8DpVChaziAOO9icGaAGovQAvzHIq+zcDd2vvSFnkE6f56XvB+T1Qk6bd++Ss0snuEa97Jcmf9mPOaaJ9PL9c0guuTrYyEVGsIsSiYpDrGgYyFMOfZGCm45OA699K6ckkit5eg+JNGbG/gwYjZVLRmo3ao+8yqSQqaZl6tyT9QxlMi7nr0EXr8xefEToBmWS+wLqgsEQY4bSuTAdp7aPrm9VIP1u/mDRIgLhVjiue7KdwY1Px1h16YroSK43NTPw/NEMNG30mAL5GsC9758Jv7ZV3wfk1UPHsXn/Dip2t+rhx+vI2PG9Ls5HttMsg8uTRxlmvPeh84JVtLIvnQiwtqgEi90gTZUTgqnEJQZQudsCAp/bgOUTaTckKCF51R4XVmhQzJip/H3fX4Y/TyujcsKAMNevsZI/5eUxNbh8UVeb+rQuqe1dN4/S7DY2QMI/Dof1vwk50LiCK9gqABmujauYCAN9Uu2NbPT2qC6S6sC37hHeH3BfstUZGk3/yFf6EtazeVxkO+j15TqmmAou9lvQY4rYZqM/uMKyJdb6YoGCjpZOYAIYyUazUcquDHkHk2jtBIoymnVHuBPS6V1nF7q0sGLTGxWYL6bbDsmcfqpe6JbvrynbfT2vU/ZHuNp62jeB017xFkzOtfNKGe2T3Ux7e8bukU8PMrwmjgvKF87k0gtoFPKDoU6uJXUdrFvvgV4KJ0jEy33/s67Xl+owmmhv2SqKN7R+iB/3wnbXvV/+29IlzfgCjNjjQbJM2RHb+9+qeREWDV8oBgcPNJ7l0JMTIuo83g9tGvlWe0bWzJnZP+2aomSJCE1mdNZt1iHSnqFAkLDR5B2t/ZR7d+7356awu/uidYsFyPwDEfOuhW3fx+tHcuz6QuAMxUzFkeLn9z4JxLQYWdhAKRj2gQuNK2TcC3TX8xM9s4rnKH0Qh867vjQTwveOqPIN3nRMUt0cN/dR+9/O0XcF+Wjt1LGWVNtV0G9/DvXzWprcTr52Jca6iMAkKjLXgRqkHGtY/M02njCK7NLKKt897BzBJJ51R53vOBgfNb34zicuptr359k82wSNaRwTH6+9u+RVt2bhd7tKGbteYMineFgdOkSwP7WM7X2Gz83Ea/JGsb7lQsRZjMVY3MmsF9Jumbjtd5o8Y2hzjx39AYbbv1JRrbPrWnGu5zom586i167itPVT/2McF6a/BaJmmMnE0YPJUwfTqZSjLI2YXU6dQRhnegeTTXlg9GYwLQaSphZ5xWrPidiyatJ2tF8mIzHksNO8Y66ev33Ulbd+mru0csIXaaDeTfTeASVx9MAQUjH9WpFPSCYi9C3c2LtF1Im8pOCuyDrvLpmzwq2hwfGqWdD03tk+B9TtSn/v5xGuFb3zLKPfVX71Zwz8zaJQDTCrGMhaASpAoYi2ZnXSVZaYXMtvVRxJh5yyjNW3jMOCbcQqEaTTnf9PLF96sqNZqS1mfWDlm9tHXrDvrHNbfS0MiItIECu0bo6u2krmldxQ41hgTlXbwgEr5ZgGAI1n1d7LQVol30b4LYzdRtCOyUCF+B0hmDnZcq8DUYfH0rje6c/MqlfUrU7T/cSq/d9XLhFcd7CmH5A6JWULvowbTo7CfQi+u9H6k/buF72LZKswzad91irCo0t3Bp7kQxssiOyKfkAeFixKSsZQbJZzXbM8WfJakmMUSw1ATu42TdtWsv3f/sE7JOGI3624oSWCyPUdFmKhD8hC3GsXqKX9TvByCkF0Boww5Xg32Kp6DRKXGIGjsvbQC3wLu/v95q7WOfEvXVNS/TsLw64KTke5sN8NZwT9i3e3phLy8QXgBpjneFM5yvtQbsJ+PT3Na1GtXPidYMiWEEPp6/6sXoevCakGEGtYTUxIQFU+hMj6dE9PF71sdfeJ7frzb/gKOjm+2nV8ym6RxzCzEJhfUL4rQJYB/LZNDMp40sg0krs4Ro165PEfDjazD40uZJPyd4yomKX8W89dib8ozW4uBrdRyVg1W4LFaELERhsRTUzUSo86rRCgP1vKQx3E59sloVorbayiWqjXZRkwPGsxvgWBObDXRZ++/FNFnJLGNCMpHbXvCeurKxoqujmybGiJ59ba3UK8GdwIdInf5Rc+qZwS8Kx4zirJITZoDYSxF+casQ/ZqYFSHmvMsVVU0OcHLHyDeD24mtMmN7RuVZwZPBlBN1dHCEdqzbhpEg9Xb7rCheeNcYdcIUJQfU4R7lbKQRs0+d24XatufVftwsaku4EcY6ShpJmuTZucqQSZiTpASrSRjhdU9EsTA7JG5vVy+te2eDPNS7BOtX7hcx0kFQUwqgF6HUFNHHClA0axfRL4RuhtQkM1P/aVwok0H0yfUXFS7cobGdQypqE1NOVJyA8ZH2fyGQvloR6jOXwVmjPoP6ceWAusUCPJKWTF4F12f2XmuN1lZZRKC9qAw5Vu4Zjikcl0JjQiynQauGeGI49cQmbJKcXgOXzakCJrhFHhoayf+rjFwbbIav3HIyjZYhGCewzH3ctMqsEdzXS0Q7cczPD6sdF4H5te8QkPO1AOiAsQqvdPCt7+QW7O/Te9Rm8C4hOSRBZOCAqjwHU4GmMeMyLwJmzMDjwswmjKZQLzf0oCqtQrRobAXkLZraB4VeQ97seNLtp3cR1OyhMiutmA2IsQznPB11g73QHEwLXRZcadE0Bxh4aYQQD2hmWoXJ2hvkNHLR89omzEfQtlOA+3vjgiJ1NJK3hyknKl5pO3urP7LPusRc0huTKZXABAXXt6ATRgYOBODLt7ZSj4IKqFo9pU9NoFZFRIlbaMnXWkCO0XqAKRAMjs/kAg/iVZhxkdOAnesF5ixKRWBjTiuskhKXA0/r69f3oIgLcS4+V8cg8JKLpohqKdi1iZIvlzbh58WLyJQIKnpajYpjbgnYu4805K1VBYrGDKlOUGff5H51NOVE7e7rppnLZqX3N94VpaFzxTPmJ8bloEUbQM4+K4xKRL8ibUDsbdPaVAFf77TGcU5rFSgokn3qfzBwZQWiWHj3TwowmZUkYDqXOHfO2uwpSj0W8GMT43T8wkXyabEgC5WAtzfqBxQMKuzbAvz2wbedYVBp4u16ASoNDVFX9HNGOpOE1XB1Muugrpl9xreHKSdqZ3cnLbvg+PBBREVSCKsXGccjBTyLnBc4I6ZcSeNGFU5bAVZanGuOzD4rGaJEadmGURIw5Pi4FygmkgO24xJU+EEUSwauwd95P6eyjzCJn0dHcIUKiYeedXd302knrMhCV2CME1WuMWyKZTKYhF/uUI2HTIpW7Qy0gBuDOj8ZoJGcr1eaBWOnaOamwaVrWjd1z5tmtfawT+9RV157KvXN6OM+cC9CR3K8VfxFu2TndeGtEkZOxrWD1tZuUW1ZrUWt2p5RGDGeoAkyuqxeEQQiL9WIGr/1V1lxsCZLYVQbvd3BP7w9/9TTaO7MmSosQVuZGJ2gsd2cqMXG2oEEsDJJxFMWT6ejYUhxsAI0NCwg+fFOivECqSibQ5C5SVVnI1jff+oC6uxv/DPBKuxTos5ePodWXrOK2+bO4UIykX6GASEUJfZfeJHmSlHSCFGX2bu0sWdzC0jtIAzgqm3zyM2c8Y2h0wCx4105tteiRqlLQisCl0dIXdrNW7stpOjv7Jkz6KIzzsj+rUgBE37xGCM7RojvkpsjayArkwHbY4zEcdJ2CBh6mSykUeOB0owCWnEhAai8tImOni6afv4Sq7WPfUpU4OxPXUjd/T3SWekvH1M84UJ1lyvOAZFvBbVzf/ds7t3YIu8vgzgnqYAp0vEpEYF4Q+HCpMyjLC47xL4khPGi2gyx5l1wm9QvcEwWzJ1NN7z7CurhW1+1VCRrs+0Qyu9Th/n2t9nXCVmI1mBbiQ4aypQxGV/Yun2u4RAk15lC0oLEMhnAnl8U+0+aO+n3p8A+J+ric5bSmR89V546KIgHAL7wYiTq9KrV/vFisKmte7T2hEW1VVnqkkJ3M5iBxBTeBrRfWDgaGyH2shXVLsmksVbZD1OWzgT3IW3SHy7Wr6CRDQvs33fpxTRr+nTRe0t+LOYmSCwzQ1tGeKBZHYDSy2QRfMJQaA33m2zbRdvEe+NOoxFkoR5VU0QnPoC99Hj5xmSy2OdExaeJl/36lXTKB86wQRLBdVx8qznKdtWAlRa3b+yX2WYlD5co1WFbto28Q228F0UPQxC5RSZqfmHytuV6AoeJ/ZaanF+vKfD47bSZHrqBaX30ofe8m2bP0Pelfh2y65Hvp9egxae/g5uG9Pk/bt4CCJtCG190dX1RngOUbtDU0NBWUBwdDJwGY6nyzsVB1RDRJvhJV7h09HXRnB89hbpm98Ni0tjnRAW6p/XQu//9e2nOinncMbzsek8BvdxR0gxq55atPVrHdQu9INHeB2IOVcHSha9QhiBVrgrXgCrf2LYakmw5p/yxSI0NJmTac51qJRE7JuiKC86lhXPnsoRTGSLuez5JnVfka0Sju8doZFvjxeRuX/RDE5C1NXvCsFgmA7HHgUkt+HuwWACnhkK1XUhEC2skhZrgGXTW5SdQ3/LZJpk8+G1IulL7jF0bdtLNv/SvtOXl7LlJ7UA7MLlutGedt2q3hTSIra5XoDEaa6HxE6Fpk9XaBzz9KxX4pb0EQWpqNLxIymzKCnD41xaod3RO0Psuu5iOW7RQdJOGu6DzzPtzkxzpfIXQZtoaMTbQllMFcn6oxB406c1U2wMKvpWhuOk516ykgTMXZcc4BeyXGdUxY/FMuuYPr6OeAf1wqX24cesjgWXj0K7VEms5REEwwkCTgczd0AFtwgjroksL2gBoYAyaWeVrjaG9z4C6+tpe1CblP/9/M56koNjAX3z2mXT84kV2TBmyhQwt4Gbmjk+BR3aOSh9SyHzoYrWMogHqLZ0M0jBoKDlnP++OwLu9l8mi4Ns0DHdjxgVLadrpC7NzOEXs1xkVQLi3n1hHN//yv9LInqonP2TQhqubhzQeW2OrPKJftQ+jEFxPAQTBw6sVwQLbBJmVh2nPL4MkYaAAOO2vSsHrhhk0S1KkrSbp6bT65JPgKlaO7PB0pi6hQlRE3/xe/VF5C9vcsbcRtxJN/YrKwtnexzZBYkTwQLOweAc488KlfMu7nKdD95g69uuMCuDDpaXnHU+X/8bV2RExcFD54lw1/MQ0tspLo11jHwMHx1iXQc5FFqYXfwsVq8aDZOKCfarjyLKjy6TN4V7qw5udO5VoRfvr70F9s5S05PRtbGKMVp+yglavOinJIrJ+Bbk2nilbYGjLMI3tafC1TQw7ybgJDf1c0EbANkxK8DbtGgAxjKsrAcX4BA2cNp9mXnLcfklSYL8nqoD7tvrj59IVv3W1DC5FpA0PU9CeRWbX1DYovStKeC8JCnkwKpzXvE8RLlVaTIapwRuMyaV8vgYToyaTPQ+SUU7S01Yup4tWlz+Jb3m720KdA4ce3DhEY4PxexuGN6ld0phN4+b7KKgQVSMYentyzNxg2zEY7mvwMG2HcH8u/SfPoznvP4k68KOV/YQDk6iMzq5OOufHL6TVH/PvWHGlGh92OM4Coiaz0H0LwCg3QGyI++CNV6JIGRUiBmooHjhLFiBvWw21971uRcR4YiECtZTCAmzygZF8aKR0lMZoxXFL6NJzVsOhBI0Q4NUibRPo19CmIVkUIb5V/g3lJswtYbOSqxQL4JQRxQ6P3QxmEk3Bt+GpgKEXgGnvkhk0+5oVLZ7KOXkcsEQFuvgV5eo/uI5WvvcUfqUvvOoy4jEq8jXUcycxlByiIPL2ouozT+VrRUhkXwPrJTPOJA5Nk6K0Gp4c6pN5NfLNR+aasNmtrX5wJDe8RlWOX8MsXTSfrrrkAursbHFp8000RbwGyY9L6tfoBO19m5N1JBq2QM4UwYwVoBIuTBFiC71dsEo08Dd79F1Y3sESvKkaw40aGHcvGqAFnzyTuqb3mmT/4YAmKoBf2bz3s9fTknOPk982+vFlx5nJspMbzkSjaxFMctcE9khMK8koXZkCTCyqKn0S6uVMtm0Ctg0/sKmA20k7cgxaQzIKpwKxE73QcRrjF8J5c2fRey46L3c6clDXjE4G7GNNC5zVW2mu8S03Zlb9/WoDuCqaxKCisHpOznCVi6Ev2uRgOvcxc5HKTmGqxnBlMyPWdc3qo3nvP5lPSMOzv0/Y75/6NgK+Y/3yz/xv2rF+e8XBoAt2wW2YYQA2hKvMRau857okhR9SbMZ9GGC9tebILFrb5qH9n1orvteBlWoykwI+o7oM24zp0+hD17zb1u82QdZYY8DGzh36gMslVEWCLIwbM+U//EPjaUv62cesTaUItk3BNvtjWHKIGKWdlgVu1KZD10APLfyJs6jzAMykjgM+ozrwHev1f3Yj9c8d4IP3oweNvFJsTYETiGvJJPzIQwS51x0xsFJAXhQNY4lc+8j6356njgf1kj0fg3qqFJsmqc6sUYbS399H11xyIfX2ZIsQWF1d2gHOrdlL38xPW1Wqp90DMgXLQrxXHdo0rEsNXY6dOlRDbIxKcUGbKPjDvSpEhUhhfqk4GjoYWI+nnMy57uQDmqTAQUtUYCnf/r7/j39UlhxWnYXieRJUCP0iZIMlGBQGhGvcKlg2xWRtlfpQLiPZMJPZewlChsjY0EX6lQwnASyZh0Zn0gnq6eum6y6/mObNmSU+yWmqkMbzp9F5/8RYb+WVywFCnklH94zS0GZOVjFSS6uAMVpAA3FLhLBgYxjnC71UFI2nAPxkbe4Np1DfCVNfGtguDmqiAiuvXkVX/e61ct38XDU9ZzjLdqZ18LIl14X3IBFWB1FWPAqIkox3n7I9ZGWp9kY9qvQO1wjlvuNwMmvjwjHFzRNSZ88oEyldxe9J584uJGkWfEqIYbxwA6mGTereJorf6oodSbIOb2nyrxvcT83bR/CzplqGyenc2Lrb1DHC/azgxWrOe1dQ3/GzoD3gOOiJCpz54XPoop9/V1s/95HzwlcEVN73qACqhshri1ckUo3rpRl8NtFhqn5TQ943i6e9yPZGrfsTsiADqanaru4uuuri8+k4LA2U28wpQsOWTqn3QQ0Ycuq9M0pyyAVQOywzHNo2ktmDCm9xSmggT34ZYsimiIbRuKWjoejHwLiddeUJNO30BVxpdCz7F4ckUTu6OuiyX3sPnf3x8+SJ+wmFEyKzhAuRrD4YwrlxF7f0eoYoBfXbtvaAAasRnHM0jqL2WclDO5/Fs/7g+JIcVU5JO2bMoEKRpswPjw3L0sCVxy3LktRIW3Bbp+2MNe1Um+2YEccd2a7rgnNAnEoEOVgriTXe0bTb7gREp3bQxA/ne8bFy2jgnMUmOTg4JIkKYEEEkvWEy1fKIARy33tXXUy/MgVVhaUhr9Fatm/sp/BEUsumw0JQHTNKihYpLdM+0rR2lzdPVnTjkrPPpFNPPKH6HDVAzpZjeFWI7SDTlg0FnzZOQRkcYpBvgSVZW/mjOSvOVsHlOb07eJkKom+DGDMuXEozLz1OJpuDiUOWqED/7Gl0419+jJacnc0MMqDiAIkwMYiXJMyhrC3SPDIpOC8K5zJJEXl7oOyD43I7pF9eF75nhR0XS8/AT9DI2CiddtIJdM6pq6J7W5Bbd/aRU8sFw8xDgOqtvXICV8Z6kk0OiIB1waNVj3PxuFwCmxD5hmjLqAKxwVYxeHxOO2kezbpsOR+QnZODiEOaqEDPQC9d9/kbaOZxszlZw22wI5zA7HzGs+onzbWZhVs5bQS899JU0Freu4xoUbJCJogwr4nX1v3kwyEUSVz9VDdLUOPMBrUzVq2gi848Xeptwc1y5ogaRfrOMx8x1NBWVXsVIgHksTjh3eAGTta9do1Nb0RKFUopER2aOVZhqn5I0lPn05wPnEwdPYcmZQ55ogLzTl5An/i7n6Rpc+xZpxWDOn9e4+VTrevLtmVk1o7oXY3mcYO/dS2ObbSXWTCHPzNwjd/apvemvPmnvKPjo7RsyQJ619mrWy8NdGgztkuEoR3MzqC+R/Z6UdsQ0cSDlwMJwEKF4xraPCRLDqUOZQuIjRu34+CItpP1Bdyek7R73gDNfu8K6ug+dOlyWCQqgKfuX/u5H6UuPOqfT1Ljc+uazMLtnLaCfw+opbmX2znK1iZB4uEPhUdm+oBatUx10z+VmkQS0us6j/ImSTouP1c7bslCuurC8/VT71ZAKA2XgKonixtgc17qqf+yY1mbcNNGlBGjjY9hXfDe9v7BWHRsF/CJfWg3httGH6Y9S2fK+t1O+e7/0OGwSVQMwlXXnkbXf/FDDX554GcP0AEbz2krZOe+OEgNhUCFqiBLE9bawE5wpdGokvYgEKKa1AtJSEtQnk0B/RBJF9nPnjWdrr74AupttDTQ4qLE/AKbJWdG/WsmAYReBEHXDNGvcNwRRRPHOL9VHXxniBkTOGDsNPLtIPrsK6zDnf1dNO9HTuYkndzDsg8EDptEdZz83lPpkl+8zH4a52ffr4BSH+TtQL1938SLL45aaQGK1h5HgIvZkUkkbysHq9kznAdVn8RJkoKPn/LOmT2D3v+uS8pJirasOMCi+SCSOM55SfpomFApzIvBx+PkuqiNeomQfkrhnfH4pc3ejYO6iN9kAqftwP0m6+O0kT/f7nbN7KX5Hz+TuuZM7amB+xuHXaJ29XTRZf/ne+i8T11YGohV57QKaqeb1ioyyOAWKCWkEeY8qLI+5qodGaLPlN4f2aCz2JKaKUmh0yTt7u2i915yIc0caPw/SuwbWIEnaZasrnPKGrCp441Qca5cVAxpiG1Hb12jwTsRuoUC3NjQmC01LARsBolpZarI+XrFKJOO7g6ac/3J1LNgQGWHAQ67RHVc8ZmraeWVJ8vM2u41gR0GvCIOmXKEKqs82MLfaArPeyYya3qBDrQKGKX4k4Jeac+04Jhs7jSd3O5ygmLrn9ZL119+qTwkG/YJHi9VtXGPncFr3jmmcGznPa77ghQLEEK4yGlE1k+0LYwBFe9vB43uxbrgITkPTaFu7SHaOV/pD0E4R1zH83fnfui0g7Y0sF0ctonaP6ufPvBnH6Zl5y9vehF1kOqWXYnIN0beKvim9jSqcJmhmqLotc14gHl44WthVRV7pi88UScJi9toNML0ivPPpoVz58A8gwXwZiDw5gGVhxpYxHMKuLoRxFbZRvCQjiIvTYkwMQHFumJ09ziNYKlhhLtXuzQG7P3EuG8pRlQCVucXstnvXk79Kwrn/jDAYZuoQP/Mfrr+8zfQjIUzc+tZndNh3hp2GXIlD5cozdVszFsmZPA6qPGwk+QTB60pZxS3uMyqDXidRZ1itcu1/J70+EX2aE8L4fE8jipUkvGALZxQhwo0khuKx8goerhJKRIESehMI+sgh4pfnIZ3jNDQ1mGti8wKUHSPcPtKmyhsFITlUHGSznnfSho4e5GKDzMc1okKzDtpAX3kv31Sfs8KyDkV2ujEl+HXu4xyDJfIWC+WCK57H5BUal/uVWajH3GijlkVs2j23lS3i1afRssX80CRWGIuRI8Xn9dWHUkYzdKJxkdbCWunHVSasjDfYuM+5D9xLkcb2TlCI7tsZoW6ssEA14dTkFHsoIhBwHNxkVC24T95/u4ZB2+R/WRx2CcqsHj1Err2sz9Co6O6uLucDtWwy1K21qyysaLRkh12uFZ+vcJ1S3reYdO3oSIwmdNsE0lKSN7bDCpFZPiudJwuPXs1nblyZfjH0IhUTfNgKRTJqNqqhGjm/ibzEDmTogyMy0TpmjjQoxwc8yIymauSSYeuC97VYF2w+IZSiagAn7+AqWmnfKc248JlNPOK5fv9gWT7E0dEogInX3UqfeALN1I3FkS0AK6BXYcCVOO6+FlRKriuzgNODZpeAN9muq2QshMGgyapSjQ5wesGzdj4GJ19ykm0+qQVcBGotyN5Wy1oM/HUUOELkQ/tMMTzFR/lCa70DjUIXCHOgeMi0vC2Js8LTggBpT8NgutFyKmdhXjg9AU045JlU/oPawcTR0yi4gqe/dHz6KJ/9y4aG84uYjrpoSisli6iaUA4VpAo4lgrwBMrr2TeqjF5kiW3q6kImcylMnvKxjqZSTlJT1mxnC4+E8/fFXexQ1c0CoBa4bY3a641tAN5n4K/VyP1AgjNCbWHCqehf0W4SZvALLfnnUEa80X8qd0IPS+qKLSNk1npE8A2/SfPpblY0NB36Bc0tMKRk6gAX49Lfv5yOu8nLspdh/L1YEkUGu/XLyFXKQPJkiVMNaI+z3vhjRv2W11QpO0oJ+mK45fQZeecxbWI+O1oiILOC88nId0KtIHCGC76tQzjzQqidQxsRlFtopysCXKu5jeIdcF4XnCCB4wFMApHFwW4ZVIx07tspnx4tL+eZH+gcWQlKqNnWg+97/evpxWXrQy/tvFL4BSDWTm/QK4ReRQEaqmUtobgGBpCrbwAwtt7UtkkMfEVDMuE542TdPGCuXT1hedTV2eXdQkbYJFyAblwcsqsKoPRlU0Q/QE/bgNYFIgd4KXuAz7ZJ4aRUyiiKPISLLbQBOxTPCws3t+zYa89XCAoUxv8ouZ8UAMNxIKehQO08BOrqWvGgX0g2f7EEZeoAB7sff3nP0TLzl1emayaIMzFq5SpK+Fp0gpuVRx+2ipTblQob/qprhWR4z2pPn/3fRdfxC/mOP0qz2CRQaIY/umACq3jzbI2WvDJCFxdBeoRksz0qYmcdaRAwbvQnQRRZ34xgkPa44IQKFn7Cj6F+g+U/d1O0Pv5cFGRlsCxkJxzP7CKmUadPjxxRCYqMHPxTLrxv3yU5iyfI1fGL3DuQje5FpoevrUHt0Mb0ccjZPF0UxnsNV3x6e6smQN03bsuoWl9fWYRwRI5gLKmGbytmD/FdceoolRGLrgr3LoQKMnNKbCtECP5dfJvQ5qFwVLDtC64AfSdfRYDn8gLPDAXrN9dcNPqw2ppYLs4YhMVmLloFt3wpx/VZwUz/NokQJAGQqaNvKLkKYDUNdHbS7ZXml7hmbpOedBx6u/rofdefCEN9PeLDBZCHM6bql2kr/7ch+v61VEeqR51wmjN+599cAVqlu4gNq5vjpxLBa1CZWQ+QHyAOGjrguFeDhEkzEotiOTRntefTN2z+kxyZOGITlRc1WXnHkc/+sUbs3+eHMaW81rVVTvh2jWFhwLEx1+iedCA06IyGeAy+vQ9KByz707l3Sn1cpJi/e682bPlU1+gI057KjIEeSWCsTabc5fuOF+gOYgQOztRRstnieXRBAAfzIoeVZAQ0ZD52FegFCcYYF3w3s1DKotANRbA+8nAQ7Lnf/hU6jvxwD9/90DhyE5Uw4orTqL3/e712WByJD5ewWhQRkNLq/is4wKpchKD+LtlvDcF0mzK+vdccB4nKZ6/yzobfCkhjCiKB6HISVDxYnAvFPA+TjusrVhkBgYvKLbnngw/VjkOAxiXB7iXqK2E1zY/5ByK9RLcIHWJZ9Y9PLNuGZGvcFJDVTA52p199QrqW354LbKfLI6KRMUTDfEd6+W/dKXULT3S1g6qr7lKJYaNbh0zwRJJylVtB7zqfHkgzvCV559t/5ofmjTq2gf7iZc20TAExCjSjCNlpRfe5wwCROFKpikY3ww38gmASeoaV1CPIZOuFYqORpwZ3TUiPzzHe9fshTMPyPGbV6w4GjgL/5q/7dYPSxwVieq49Ocvp7M+co796LwxfAhkxS92UZMhJSDLkwXLpLjMeLfBh0cnHb+MTlm+nJU+k0LTDEEfTY0XEvhUpC+mkp1C++2D1DPPCxCM41gWsQv0eBrBo0l0rzAy7zythPuZUd624MmB/QOmvRsGaWg7Hpo2KjJ5Qv/WYdqzbi9NO28Jzbp4mTkd2TiqErW7v4eu+9wNdNp1Z1QmaxgHBcgQU7YJokXZWiWyR9LwhkUNp684kcb5Nk0G8FTAftG1aU89MxgxYTK4oJhCDLf3AoROFz0yDYMr0q+csBkKhiU/v3NpAvMZGx6n4W06wyJp924aoqGdIzT7iuNpwXUrD/rzdw8UjqpEBfCvHt7/hz9Ks5fN0fcxhvxYQK1YqqUo1dBkVBu1ymo8q/IMOmfWDJo/ewofYBQajkMN4tLQE1u9Pa0elh4sap2v9igidCf1AYnpyVmVpBUiBRTujCJdcGunEfk+pracsjp58Qv0zLMW0KIbV7V7aEcEjrpEBWYsmEE/9fc/RwtWLdSxYHJFuLoFtLquuYRMQU1mo8fbk6cHLl5AXbKooQ2keGW4KpqAl/4GBqz3oxquE0tlQZu5BEQz4bndSb/1k/7ByR2Zpj6315FGTeKFeeYFS2jpT60+ZM/fPVA4KhMVmLlkFn3g8x/iSx8HQTYQsqTLl0Yo6tRepfre1N+/8mb1OTNmQAuTamiQ/DgtmKOKgeli54W6o5Cq4Rv1BUDmpQFyKrOVVtzPS0Kukkc6SO+n10FdVnUMgNmCcHHPHDh+76IBWvKJ06iz//BfZD9ZHLWJCiw793i66W9/ivpm5r/k9gtdecEL0JTLkNWUy/TBjscbkgjvURPyYXIoDs8YETqpm1DGOxcd9+5pQjfK8QwPEsskkHKMEXkgX7X+VBqxLskL+lQvyhksEjdQlQhMpGCDaStm0wmfufCIWr87GRzViQqsvPwkes9nriE8+BmIF3tSCIPPOaExoI0onVHHadP2bVy3wes5FVGQqbeKPWyaNYHIM7LbzqrgAXm3pvAmQKQfDXxbtKiO8JUAXgCnzmWRUltm7iGAIk1eLOia3kNLfuLMI3bVUTs46hMVV/Tcj19A7/3t9zPfcngxkGTZ5hLE8UGSMQyTp3EpQjTVSa++vZ6GRuyf+brSio9fEMApEPlqqEWWxBUeTVRVgJmEs+PBmUK9fMo0oO4DvC8eROB8KYhApGzvrloXthIxipjxrmduP5346xdR35LpIj9acfQnKgPPCr7wpy+h1R86hyr/EZUhS81WyOx8kDm82skjfMfuPfTWlk2ZkOGsD7rKIQyjGDixsEYlepuy+AuaoAICK4h1aYqLJCUol9S808R424aUZdZ+Dt6JkkIRXIUPoas8cjKudPZ10dJPnUG9i4/uJAWOiUQFunu76f2/dz2dfv3qwtc2mnStUtS1IUWVyPhk3gcZD1y16aC+rl567KUX5DenjjAWxcqLMryTCtulgZ8CWwGc9zrAfDF4AFRRFKMm3gyiXcYXg7uG5dJvl8WWgk0Bsa3EM5W6VpsC/27iuE+fTQOnzjPJ0Y1jJlGBvpn99P7f/wAtOWupJGsp6Rog0/pjUsoeGo2lPiaZ7erootc3vE33PPe4a1sgG9C596bJszDgXVykDeB9d6CJokzRKBDLUzaxp5gVbVEv9DPaMJsSU0mDPuSRIrIhnm+06COn0vTT5pvw6McxlajAjIUz6GP/9Saau4IvcoPRAbGMRxQXGDGWB47+GseBgaQ/D+M9z4aYEDuZ7+3spe899zQ9vvYHPLN25mIIpOLSqElDM0PqUECxXgGJ7HYIYUWqLs+h0LY7VNoCxb4WDK3qbcmtLqiS6rAQegExHkm6+OOn0ZxLl5abPYpxzCUqMGvpbLrhCzfKfzyXmcsGQw5xFDUaED54pBKMTA7SxVtfZz/d/dRj9OwP12ZhzUYgP3dLmoqSEUEQtwOJzjtPlEbwHiTkMquojZ2oDpwdIxrPInjYSi8XxiaDbN41J9BsJOkR8qyj/YVjMlGB5ecvp4/+l09Qd19PehoCBlAaPHHAOC80VFhXvKVNw4cZ57s7ujldu+mbD99Lr2xYJzOuxvFShRRJTazayLoKEp13XlpBTNzJW2rqGPooyDoJN6nJLh+j6JUDKytcJOD8962gBR88+bB+/u6BwjGbqJglTrx0JV37O9fjN2nZeASNgwS8jyyhWsnEuOHNboN1D40WbEBPRw/1UC/d8si99PrG9ZasXrxBtVWwLIlZbny0aAQcS0yUdnwyoKGsPYGcnChwqMw16e4kNOgi4UNpBmlOGKcTNOvCJTT/2hMP++fvHigcu4lquOCmi+iKX7pKn8dTGgPZkNIPd/DUuyDj4jnkCekhPEWhT8na2UMjw+P0r/ffTtt27zIpAA5RuHj4SEObjSBmKMEUvHzVYvWmgLE4SIcZ3jtQ5x15WbTETsIwG9tt2IecEVeKhiybcdYCWvazZx0W/1D4UOGYT1Tgql+7hi748YtofCT/qDvs9daWORmFxVGEUWkqAThOSxcIoxV8sASul5N1YqyD/um+W2nTzm0s01acCJxWwM2iuaAkUFSIKsBW3mlP2ORZFUH1YgYwdT5RJc0R/JX3E6fAi+K0lXNoySfPMMmxizpRAR4fuAVefvEK+d8vOm7CUPOBFEQJaWwpo+PdZlPj5DaXS6dtfZ29tH3nHvrqQ2toaKTw7wYTNF4luB8e3xND6hUuLsqp4CTHA4rCWotTjYJSfJUFBYv4ToFcexHui6K7huhfOoOW/+r51D3n6F0a2C7qRDXgwd6f+MubaPkFJ8greQkYeYXRJ9VgGpMUFU9SmU1RNxme59vf1Udbt++kf+CZde/wEDwKqB7E0g3eeY4lnuVV3XZRXoUoLnG+wjkgxi5aIoLDdUKxywmKiJ4ZcP6xbnfZv+Pb3Z7W/2voWECdqAED86bTB7/wYZqxaFZ5YIW6snrTKmONiw45pKFTVWTUb35VJjMrJ+v6zZvolsfuTU8mjIAkSqVeMKtKzqYQe3dCfzK+GCrFZooXBDEwWVBFcR56uHnjNtA7t59O+LULqY9n1BqKOlELmL9yAd301z9BA/MHeFz5psgnRXhciH2/43UZ1EJNzhSczK7geUYVnrpooHuA1q5fR9949C4ak9VSCrQlPlpNdeerkbzLRqiKLMrzvMd3sdTdxGj0SPZFRB/ho1dEMlBw//DolCWfOpN6F00zYQ2gTtQKLF29jD7w2Q9Rd/ovX56uKJp0GawmSamzZY5KkirN6jjxvDHfxbSvs4+eeW0trXn2Ya4VZjarwKc6QaMQVgztZqaq9KsA7LiIeRs+TU3a8FdYnxn4VPf4XziHpp92bKzfnQzqRG2A0649nW74Dx+mjk6comwwZSMwk0kOgioRiqI3u9kms6lQnVF9w5rg6T3T6ZGXnqO7nntMpRwAiSmtOa2CGwgxKs5geJey2yngPTVAhWIdB4leka9ENGqJYCys1cfHadGPnUrTzzh21u9OBnWiNgAS6czrV9Nln76CazawDLGmQ573SaijXWdQ4RJVjSa+bJKwmFs7qJuTFTPr3c89To++8qzoHfnWC5B2zBakNO2KUNmEJhEbqMpik0QF+JJh0QCwPknX+Uj5xXDxx0+nOe9aJvUaZdSJ2gT4r3FXf+a9dNGnLrFf25SRZDK+YnohEZWTGVQ2nUlDTTfRd8pSw4GuAfrOkw/RUz98WWbgPLy10JMoimshE5wPscTWzEwtbOAbwn0afqXjQqdoFyUYoyFUQUbHad61J9KcK49XXY1K1InaAngK/3t+5Ro6+T2nyLOCw3BjZINfOKsi+RJnyabUEtPkkrQpiZGqnKydXdRLPXTL4/fSi2//MJ+skojWAxvosksZJ4IGCDoLKSTyDFhFfvJwb6eAR2JZIei8955ICz9w0jG7NLBd1InaBgbmDtBNf/0pOu4cvOrHkYZPSrOBqVzV3iiSM1HfdMbVT4NxQTplqWH3RDf9y4O30VvbNom9wtMIBXxh1LeA53OY0HK8I/ICNxBF0bJxPX0f7WKvM7Bkc/rZC2jRh1fhBJi0RiPUidom8GDvG7/4EflXj/o4F78V9sFndR5zmleahLpXqpvNoD6TCoUeKdolSenJ2sXJ+s8PfJfeRrJaFM2sbMA3RDQBb3UXa5ttImeISowS4XXWWx8rF4+waNYFi+m4nzqLOrrrIdgO6rM0CSw6ZTH9zP/6OZo2b7oM1ThkczChJCI2mS3BsYx32YwaktVskKSq0a9t9g4O0z/cfyvtGtzDUo3aFN4hN+M6RChoO8JNE6LAnbzkgEAF45SQrDMWVkVLVPD83cU3nX5ML7KfLOpEnSTmnTCfPvhHN0pS5SeLkAWSiBkkGfn9pUqVCsc7S1W99QXFJomLO0JdvTQ0NEL/+OB3aPfwIFs0QOiL9ItLcTKL9YIqj6ZKB3pihiDosDXg7qDOA7rIfjYt/7ULqfsoff7ugUKdqFPAGdedSR/6/Iepq/BvEzT9AriaZBjIqc57SUz2Z5qSFZzIeZuAFBdIZ9aN27bRlx++nQZH7fGjTQA/yR2jRUCeQ8yoKocqICnF1qL5q0B8NWBAK/1gcdf0Xlry42dQT73IftKoE3WKOPfD59PlP38ljY2MFca4DVyZYVym0BSEypKReUlHJKvNoiK3ush4w4KI/s5+euOdd+hrj6yRSAIE9wJSaC/yEUkOptLIhdHAeGnEZYzAOqx3Qs2Leub104rfvJj6ltXrd6eCOlGnCHydcNWvXEMXfvIirsUlhlxADCn5rA6B/lNgTUhQnTvVymdarWmyQodkndbVT2vfXk/f/P49NDo2BnGCNwlRaL4MKBsaxCiRNotY/n7ZmxA57zp7u2kpz6R4b1pjaqgTdR/Q2d1J1//OB+jkK06h8dGKB3uXsgbJB6JpKHVLVqkzjxTFtxUyo5pGZFywLhgz6xOvvkhrnntEvnNNCWHINQe4YNKGwYBZmUTzohwFIu/AQ7KP/z/Opemn10sD9wV1ou4j8KzgD3/hx+j485YT/ql4Hkg+YxOjFPkJTookLi4GXw7h9bL4Vzh+Cww7LDUc6JpGj7z8HN35/KOcQOFXLw5PKhQoUwZVpVIRhWgSQ/vnIavg8qRnRh7t+dFTafopc0pha0wOdaLuB8xcNJM+9p8/STMXz5TE8UGpt7jZ4FWxLZKwT4F1Yx0yF9Q2T06hSBRLYFDcBvd29tGaZx6lx157njrlhwOMfEMKlwkTFUWYTt6Dgiov7jKdZt5ay6hA7JUVsPESPH/3snr97v5Anaj7CfNOmEef+IubaOZCTVYZsxifzGTjVJMQwijzojqnzJkRZlrZuC4bU1kX3D1Atz/zMD31xkvmYchlkCNnYYiG4NnG2nRN9KoM64Ah3MHzncWC96+g2fUi+/2GOlH3I0644ET6yJ98TBOMR7Wmq/K5Ec8VGfSwk78sATGPyl+YUdVUbfS9K5JWF/Fj9dJXH15Dr76zXhJZA1fBFQUDmS1VJncDYfbMNBmFPAc3soInVcx73wm08IOr6lVH+xH1mdzPWPmuk+iGz35Iv2OV0Z3S1aAcki5SQHj50yT15MwvNwRVCyRmDycrnsT/1UfW0Oub32JpI0DjPWEqSQm5VlHc16oJOd6VRSOAlbMvWCKL7Jt0pMYUUCfqfgZ+bXPRTZfQlb+ozwoujeUgQdI5lVnYeaHOW12S1ClvnsR8CfEI0uGRcfqHB2+lLXt2sFWEZZRkmLYh1NqLMMtkBSQeihaYcfYiOu7nzj4q/zX/oUadqAcIl//cFXTBJy/i/NARboQHPrYI3Aazkv889ZBEaRPeklQo9jKfsk4X8SN5e/gW+ITTV9LKX7mIehdMC4mlnkC6tfVSgFtGTc6s7KIY13/Nv+Sm001QY3+jTtQDhN7pffThz/8YnXb1aZogOWjiAJIcmN0yEbOoqwC8qpGY4LXgthcXT1KXwy9cvpB+9W9+jZacv5yW4qnyAzyrSbPWdojvvQGNBXCaQ6XQwLq+5TPphF+9oF4aeABRJ+oBxgc/+2FactoSebB3FfxWGAmpf8JpQYYGnc6n2HDZmMptcCdNmzFAn/6Ln6eFJywU+2mcOMd/mm9BPVllBtWYQJEC4LUnBvFTtiF4Ju2e1UvH/Qy/MPTVz989kKgT9QBj9tLZ9LNf+jQtWLmQxzUnK2dE1ftUQPhU1ZSUGZQvE1LSZfhTSQf18cz903/2s7Tq4lPUDWAf/CfuJZ84rfSfzzz/Yh4isvBFRTOwTfe8fjrx1y+q1+8eBNSJehAwff50+rEvfpR6+nvk2UvNgUTUBNUUktRUKklracs8/lfOR37no3TedeeJRREzz19MS37yTInXMP9YKHfmrboVAVseOct+ejX1Lq7X7x4M1Il6kIDvWH/iL3+S+mb2pQ9ohCAvsQvwWpKaDerIXxS8R732l6+nyz55WTDMA0v4Zl+0hBbecLJkY8kMHWjg2wxdfEu9/BfPpek8a9c4OKgT9SBi1RWn0HW/+SP5n8Yxo3x48DYYq1h6SnJqjWfS0Qm6+GOX0gd/84PyiJhWmPe+E2n+tSt1LTLHlVDeWGq0PUxw23j+7oyz9P1wjYODOlEPIjDDXfTJi+n9v3ld5VP3koSZqFUeycocJ9bp7z6NbvitG+TXO+0A/yZi0Y2raO67j5cPgHxGbwvBVv7dxI/7+l0T1jgoqBP1IAMJ+p5fvIrO+sA5PLOOsgSZ4KUw/uU+VxglbHLcGcfTz/73T9P0eZP8AIcDLP44z4Tn8EzY8n1yABpmc3n+7tUn0Nwrl6u8xkFFnaiHAF09XXTjZ2+kcz94XvpwCXsvkh2SmUzsodq4bV24ciF94k9vot5pU3veENbeHvezZ9H01Qv0P6w3QuyMlfnvX0ELP7Sq8k6gxoFHx0T52/gaBwlDu4foa3/wFXr6W09xAvBrZiEH/NLgwd9Lz1xKn/7SL9CM+fv+Vcj4nhF642+fpD0vbcWnUiZloDlUw4jAo1HnXnY8Lf7x06mz8IyoGgcPdaIeYiAJX7z3RXr8K4/Sa4+9Rru37NYE5YTBd6RLT19K5954Pp11Hc+Ec6eb175jfHCUtj24nrbe+yYNb+A2MbPrJ1Zya4zZt+/4GTT/2hU06/zF8v60xqFDnaiHEQZ3DtKm196hXZt3U99AL81fsYBm4Z8qH0BMjIzTruc20+4Xt9DIlr0ys/cunCaf6g6smmNWNQ416kStkUGGAs+c9eR52KF+01EjQ/qUucbhhjpRa9Q4AlAnao0aRwDqRK1R4whAnag1ahwBqBO1Ro3DHkT/P3DgeZARr0GBAAAAAElFTkSuQmCC;rounded=1;" parent="1" vertex="1">
          <mxGeometry x="135.04" y="377.5" width="53.67" height="50" as="geometry" />
        </mxCell>
        <mxCell id="60mvIXCYYZBU1uluNazb-12" value="" style="image;aspect=fixed;html=1;points=[];align=center;fontSize=12;image=img/lib/azure2/identity/Azure_Active_Directory.svg;rounded=1;" parent="1" vertex="1">
          <mxGeometry x="136.17" y="471" width="51.41" height="47" as="geometry" />
        </mxCell>
        <mxCell id="60mvIXCYYZBU1uluNazb-15" value="List" style="strokeColor=#dddddd;shadow=1;strokeWidth=1;rounded=1;absoluteArcSize=1;arcSize=4;labelPosition=center;verticalLabelPosition=middle;align=center;verticalAlign=bottom;spacingLeft=0;fontColor=#999999;fontSize=12;whiteSpace=wrap;spacingBottom=2;html=1;" parent="1" vertex="1">
          <mxGeometry x="235" y="377.5" width="33" height="40" as="geometry" />
        </mxCell>
        <mxCell id="60mvIXCYYZBU1uluNazb-16" value="" style="dashed=0;connectable=0;html=1;fillColor=#757575;strokeColor=none;shape=mxgraph.gcp2.list;part=1;rounded=1;" parent="60mvIXCYYZBU1uluNazb-15" vertex="1">
          <mxGeometry x="0.5" width="22.5" height="18" relative="1" as="geometry">
            <mxPoint x="-12.25" y="3" as="offset" />
          </mxGeometry>
        </mxCell>
        <mxCell id="60mvIXCYYZBU1uluNazb-22" value="Asset Management" style="shape=module;align=left;spacingLeft=20;align=center;verticalAlign=top;whiteSpace=wrap;html=1;rounded=1;" parent="1" vertex="1">
          <mxGeometry x="350" y="342" width="100" height="44" as="geometry" />
        </mxCell>
        <mxCell id="60mvIXCYYZBU1uluNazb-23" value="Ticket Managerment" style="shape=module;align=left;spacingLeft=20;align=center;verticalAlign=top;whiteSpace=wrap;html=1;rounded=1;" parent="1" vertex="1">
          <mxGeometry x="350" y="417.5" width="100" height="44" as="geometry" />
        </mxCell>
        <mxCell id="60mvIXCYYZBU1uluNazb-24" value="Booking Management" style="shape=module;align=left;spacingLeft=20;align=center;verticalAlign=top;whiteSpace=wrap;html=1;rounded=1;" parent="1" vertex="1">
          <mxGeometry x="350" y="497" width="100" height="44" as="geometry" />
        </mxCell>
        <mxCell id="60mvIXCYYZBU1uluNazb-25" style="edgeStyle=orthogonalEdgeStyle;rounded=1;orthogonalLoop=1;jettySize=auto;html=1;entryX=0.007;entryY=0.523;entryDx=0;entryDy=0;entryPerimeter=0;" parent="1" source="60mvIXCYYZBU1uluNazb-15" target="60mvIXCYYZBU1uluNazb-22" edge="1">
          <mxGeometry relative="1" as="geometry" />
        </mxCell>
        <mxCell id="60mvIXCYYZBU1uluNazb-26" style="edgeStyle=orthogonalEdgeStyle;rounded=1;orthogonalLoop=1;jettySize=auto;html=1;entryX=-0.021;entryY=0.593;entryDx=0;entryDy=0;entryPerimeter=0;" parent="1" source="60mvIXCYYZBU1uluNazb-15" target="60mvIXCYYZBU1uluNazb-23" edge="1">
          <mxGeometry relative="1" as="geometry" />
        </mxCell>
        <mxCell id="60mvIXCYYZBU1uluNazb-27" style="edgeStyle=orthogonalEdgeStyle;rounded=1;orthogonalLoop=1;jettySize=auto;html=1;entryX=0;entryY=0;entryDx=0;entryDy=15;entryPerimeter=0;" parent="1" source="60mvIXCYYZBU1uluNazb-15" target="60mvIXCYYZBU1uluNazb-24" edge="1">
          <mxGeometry relative="1" as="geometry" />
        </mxCell>
        <mxCell id="60mvIXCYYZBU1uluNazb-28" value="User Roles" style="text;html=1;align=center;verticalAlign=middle;whiteSpace=wrap;rounded=1;" parent="1" vertex="1">
          <mxGeometry x="221.5" y="424.5" width="60" height="30" as="geometry" />
        </mxCell>
        <mxCell id="60mvIXCYYZBU1uluNazb-29" value="Basic User" style="swimlane;horizontal=0;whiteSpace=wrap;html=1;rounded=1;" parent="1" vertex="1">
          <mxGeometry x="476" y="335" width="367" height="124" as="geometry" />
        </mxCell>
        <mxCell id="60mvIXCYYZBU1uluNazb-35" value="" style="edgeStyle=orthogonalEdgeStyle;rounded=1;orthogonalLoop=1;jettySize=auto;html=1;" parent="60mvIXCYYZBU1uluNazb-29" source="60mvIXCYYZBU1uluNazb-31" target="60mvIXCYYZBU1uluNazb-34" edge="1">
          <mxGeometry relative="1" as="geometry" />
        </mxCell>
        <mxCell id="60mvIXCYYZBU1uluNazb-31" value="Start" style="ellipse;whiteSpace=wrap;html=1;rounded=1;" parent="60mvIXCYYZBU1uluNazb-29" vertex="1">
          <mxGeometry x="33" y="70" width="46" height="30" as="geometry" />
        </mxCell>
        <mxCell id="60mvIXCYYZBU1uluNazb-41" value="" style="edgeStyle=orthogonalEdgeStyle;rounded=1;orthogonalLoop=1;jettySize=auto;html=1;" parent="60mvIXCYYZBU1uluNazb-29" source="60mvIXCYYZBU1uluNazb-34" target="60mvIXCYYZBU1uluNazb-40" edge="1">
          <mxGeometry relative="1" as="geometry" />
        </mxCell>
        <mxCell id="60mvIXCYYZBU1uluNazb-34" value="Create/Edit Request" style="rounded=1;whiteSpace=wrap;html=1;" parent="60mvIXCYYZBU1uluNazb-29" vertex="1">
          <mxGeometry x="108" y="65.5" width="72" height="39" as="geometry" />
        </mxCell>
        <mxCell id="60mvIXCYYZBU1uluNazb-52" value="" style="edgeStyle=orthogonalEdgeStyle;rounded=1;orthogonalLoop=1;jettySize=auto;html=1;" parent="60mvIXCYYZBU1uluNazb-29" source="60mvIXCYYZBU1uluNazb-40" target="60mvIXCYYZBU1uluNazb-51" edge="1">
          <mxGeometry relative="1" as="geometry" />
        </mxCell>
        <mxCell id="60mvIXCYYZBU1uluNazb-56" style="edgeStyle=orthogonalEdgeStyle;rounded=1;orthogonalLoop=1;jettySize=auto;html=1;entryX=0.5;entryY=1;entryDx=0;entryDy=0;" parent="60mvIXCYYZBU1uluNazb-29" source="60mvIXCYYZBU1uluNazb-40" target="60mvIXCYYZBU1uluNazb-55" edge="1">
          <mxGeometry relative="1" as="geometry" />
        </mxCell>
        <mxCell id="60mvIXCYYZBU1uluNazb-40" value="Submit?" style="rhombus;whiteSpace=wrap;html=1;rounded=1;" parent="60mvIXCYYZBU1uluNazb-29" vertex="1">
          <mxGeometry x="198" y="60" width="80" height="50" as="geometry" />
        </mxCell>
        <mxCell id="60mvIXCYYZBU1uluNazb-51" value="Status Submitted" style="whiteSpace=wrap;html=1;rounded=1;" parent="60mvIXCYYZBU1uluNazb-29" vertex="1">
          <mxGeometry x="299" y="68" width="59" height="34" as="geometry" />
        </mxCell>
        <mxCell id="60mvIXCYYZBU1uluNazb-57" style="edgeStyle=orthogonalEdgeStyle;rounded=1;orthogonalLoop=1;jettySize=auto;html=1;entryX=0.5;entryY=0;entryDx=0;entryDy=0;" parent="60mvIXCYYZBU1uluNazb-29" source="60mvIXCYYZBU1uluNazb-55" target="60mvIXCYYZBU1uluNazb-34" edge="1">
          <mxGeometry relative="1" as="geometry" />
        </mxCell>
        <mxCell id="60mvIXCYYZBU1uluNazb-55" value="Status Draft" style="whiteSpace=wrap;html=1;rounded=1;" parent="60mvIXCYYZBU1uluNazb-29" vertex="1">
          <mxGeometry x="208.5" y="8" width="59" height="34" as="geometry" />
        </mxCell>
        <mxCell id="FUMP1IapKdVBmDOGwnnk-1" value="No" style="text;html=1;align=center;verticalAlign=middle;whiteSpace=wrap;rounded=1;" vertex="1" parent="60mvIXCYYZBU1uluNazb-29">
          <mxGeometry x="242.5" y="40" width="25" height="30" as="geometry" />
        </mxCell>
        <mxCell id="FUMP1IapKdVBmDOGwnnk-14" value="Yes" style="text;html=1;align=center;verticalAlign=middle;whiteSpace=wrap;rounded=1;" vertex="1" parent="60mvIXCYYZBU1uluNazb-29">
          <mxGeometry x="272" y="80" width="25" height="30" as="geometry" />
        </mxCell>
        <mxCell id="60mvIXCYYZBU1uluNazb-36" value="Manager" style="swimlane;horizontal=0;whiteSpace=wrap;html=1;rounded=1;" parent="1" vertex="1">
          <mxGeometry x="476" y="459" width="367" height="102" as="geometry" />
        </mxCell>
        <mxCell id="60mvIXCYYZBU1uluNazb-65" style="edgeStyle=orthogonalEdgeStyle;rounded=1;orthogonalLoop=1;jettySize=auto;html=1;entryX=1;entryY=0.5;entryDx=0;entryDy=0;" parent="60mvIXCYYZBU1uluNazb-36" source="60mvIXCYYZBU1uluNazb-43" target="60mvIXCYYZBU1uluNazb-46" edge="1">
          <mxGeometry relative="1" as="geometry">
            <Array as="points">
              <mxPoint x="267" y="66" />
            </Array>
          </mxGeometry>
        </mxCell>
        <mxCell id="60mvIXCYYZBU1uluNazb-43" value="Review Request" style="rounded=1;whiteSpace=wrap;html=1;" parent="60mvIXCYYZBU1uluNazb-36" vertex="1">
          <mxGeometry x="291" y="47.25" width="54" height="37" as="geometry" />
        </mxCell>
        <mxCell id="60mvIXCYYZBU1uluNazb-62" style="edgeStyle=orthogonalEdgeStyle;rounded=1;orthogonalLoop=1;jettySize=auto;html=1;entryX=1;entryY=0.5;entryDx=0;entryDy=0;" parent="60mvIXCYYZBU1uluNazb-36" source="60mvIXCYYZBU1uluNazb-46" target="60mvIXCYYZBU1uluNazb-49" edge="1">
          <mxGeometry relative="1" as="geometry" />
        </mxCell>
        <mxCell id="60mvIXCYYZBU1uluNazb-63" style="edgeStyle=orthogonalEdgeStyle;rounded=1;orthogonalLoop=1;jettySize=auto;html=1;entryX=0.5;entryY=1;entryDx=0;entryDy=0;" parent="60mvIXCYYZBU1uluNazb-36" source="60mvIXCYYZBU1uluNazb-46" target="60mvIXCYYZBU1uluNazb-50" edge="1">
          <mxGeometry relative="1" as="geometry" />
        </mxCell>
        <mxCell id="60mvIXCYYZBU1uluNazb-46" value="Approve?" style="rhombus;whiteSpace=wrap;html=1;rounded=1;" parent="60mvIXCYYZBU1uluNazb-36" vertex="1">
          <mxGeometry x="197.5" y="40.25" width="69" height="52.5" as="geometry" />
        </mxCell>
        <mxCell id="60mvIXCYYZBU1uluNazb-60" value="" style="edgeStyle=orthogonalEdgeStyle;rounded=1;orthogonalLoop=1;jettySize=auto;html=1;" parent="60mvIXCYYZBU1uluNazb-36" source="60mvIXCYYZBU1uluNazb-49" target="60mvIXCYYZBU1uluNazb-59" edge="1">
          <mxGeometry relative="1" as="geometry" />
        </mxCell>
        <mxCell id="60mvIXCYYZBU1uluNazb-49" value="Status Approved" style="rounded=1;whiteSpace=wrap;html=1;" parent="60mvIXCYYZBU1uluNazb-36" vertex="1">
          <mxGeometry x="115" y="51" width="63" height="31" as="geometry" />
        </mxCell>
        <mxCell id="60mvIXCYYZBU1uluNazb-61" style="edgeStyle=orthogonalEdgeStyle;rounded=1;orthogonalLoop=1;jettySize=auto;html=1;" parent="60mvIXCYYZBU1uluNazb-36" source="60mvIXCYYZBU1uluNazb-50" edge="1">
          <mxGeometry relative="1" as="geometry">
            <mxPoint x="100.96296296296282" y="65.8765281394675" as="targetPoint" />
          </mxGeometry>
        </mxCell>
        <mxCell id="60mvIXCYYZBU1uluNazb-50" value="Status Rejected" style="rounded=1;whiteSpace=wrap;html=1;" parent="60mvIXCYYZBU1uluNazb-36" vertex="1">
          <mxGeometry x="184.25" y="3" width="95.5" height="25" as="geometry" />
        </mxCell>
        <mxCell id="60mvIXCYYZBU1uluNazb-59" value="End" style="ellipse;whiteSpace=wrap;html=1;rounded=1;" parent="60mvIXCYYZBU1uluNazb-36" vertex="1">
          <mxGeometry x="37" y="49.75" width="39" height="33.5" as="geometry" />
        </mxCell>
        <mxCell id="FUMP1IapKdVBmDOGwnnk-15" value="No" style="text;html=1;align=center;verticalAlign=middle;whiteSpace=wrap;rounded=1;" vertex="1" parent="60mvIXCYYZBU1uluNazb-36">
          <mxGeometry x="235" y="25" width="25" height="30" as="geometry" />
        </mxCell>
        <mxCell id="FUMP1IapKdVBmDOGwnnk-16" value="Yes" style="text;html=1;align=center;verticalAlign=middle;whiteSpace=wrap;rounded=1;" vertex="1" parent="60mvIXCYYZBU1uluNazb-36">
          <mxGeometry x="178" y="39" width="25" height="30" as="geometry" />
        </mxCell>
        <mxCell id="60mvIXCYYZBU1uluNazb-64" style="edgeStyle=orthogonalEdgeStyle;rounded=1;orthogonalLoop=1;jettySize=auto;html=1;entryX=0.5;entryY=0;entryDx=0;entryDy=0;" parent="1" source="60mvIXCYYZBU1uluNazb-51" target="60mvIXCYYZBU1uluNazb-43" edge="1">
          <mxGeometry relative="1" as="geometry">
            <Array as="points">
              <mxPoint x="794" y="455" />
              <mxPoint x="794" y="455" />
            </Array>
          </mxGeometry>
        </mxCell>
        <mxCell id="60mvIXCYYZBU1uluNazb-66" value="System" style="swimlane;horizontal=0;whiteSpace=wrap;html=1;rounded=1;" parent="1" vertex="1">
          <mxGeometry x="476" y="561" width="367" height="72" as="geometry" />
        </mxCell>
        <mxCell id="60mvIXCYYZBU1uluNazb-77" value="Email Notification" style="shape=process;whiteSpace=wrap;html=1;backgroundOutline=1;rounded=1;" parent="60mvIXCYYZBU1uluNazb-66" vertex="1">
          <mxGeometry x="238" y="17" width="87.75" height="38" as="geometry" />
        </mxCell>
        <mxCell id="60mvIXCYYZBU1uluNazb-78" value="Email Notification" style="shape=process;whiteSpace=wrap;html=1;backgroundOutline=1;rounded=1;" parent="60mvIXCYYZBU1uluNazb-66" vertex="1">
          <mxGeometry x="49.00000000000001" y="23" width="87.75" height="38" as="geometry" />
        </mxCell>
        <mxCell id="60mvIXCYYZBU1uluNazb-79" style="edgeStyle=orthogonalEdgeStyle;rounded=1;orthogonalLoop=1;jettySize=auto;html=1;entryX=1;entryY=0.5;entryDx=0;entryDy=0;" parent="1" source="60mvIXCYYZBU1uluNazb-51" target="60mvIXCYYZBU1uluNazb-77" edge="1">
          <mxGeometry relative="1" as="geometry">
            <Array as="points">
              <mxPoint x="824" y="594" />
              <mxPoint x="802" y="594" />
            </Array>
          </mxGeometry>
        </mxCell>
        <mxCell id="60mvIXCYYZBU1uluNazb-80" style="edgeStyle=orthogonalEdgeStyle;rounded=1;orthogonalLoop=1;jettySize=auto;html=1;entryX=0.5;entryY=0;entryDx=0;entryDy=0;" parent="1" source="60mvIXCYYZBU1uluNazb-49" target="60mvIXCYYZBU1uluNazb-78" edge="1">
          <mxGeometry relative="1" as="geometry">
            <Array as="points">
              <mxPoint x="569" y="526" />
            </Array>
          </mxGeometry>
        </mxCell>
        <mxCell id="FUMP1IapKdVBmDOGwnnk-17" value="Basic User" style="swimlane;horizontal=0;whiteSpace=wrap;html=1;rounded=1;" vertex="1" parent="1">
          <mxGeometry x="468" y="652" width="367" height="124" as="geometry" />
        </mxCell>
        <mxCell id="FUMP1IapKdVBmDOGwnnk-18" value="" style="edgeStyle=orthogonalEdgeStyle;rounded=1;orthogonalLoop=1;jettySize=auto;html=1;" edge="1" parent="FUMP1IapKdVBmDOGwnnk-17" source="FUMP1IapKdVBmDOGwnnk-19" target="FUMP1IapKdVBmDOGwnnk-21">
          <mxGeometry relative="1" as="geometry" />
        </mxCell>
        <mxCell id="FUMP1IapKdVBmDOGwnnk-19" value="Start" style="ellipse;whiteSpace=wrap;html=1;rounded=1;" vertex="1" parent="FUMP1IapKdVBmDOGwnnk-17">
          <mxGeometry x="33" y="70" width="46" height="30" as="geometry" />
        </mxCell>
        <mxCell id="FUMP1IapKdVBmDOGwnnk-20" value="" style="edgeStyle=orthogonalEdgeStyle;rounded=1;orthogonalLoop=1;jettySize=auto;html=1;" edge="1" parent="FUMP1IapKdVBmDOGwnnk-17" source="FUMP1IapKdVBmDOGwnnk-21" target="FUMP1IapKdVBmDOGwnnk-24">
          <mxGeometry relative="1" as="geometry" />
        </mxCell>
        <mxCell id="FUMP1IapKdVBmDOGwnnk-21" value="Create/Edit Request" style="rounded=1;whiteSpace=wrap;html=1;" vertex="1" parent="FUMP1IapKdVBmDOGwnnk-17">
          <mxGeometry x="108" y="65.5" width="72" height="39" as="geometry" />
        </mxCell>
        <mxCell id="FUMP1IapKdVBmDOGwnnk-22" value="" style="edgeStyle=orthogonalEdgeStyle;rounded=1;orthogonalLoop=1;jettySize=auto;html=1;" edge="1" parent="FUMP1IapKdVBmDOGwnnk-17" source="FUMP1IapKdVBmDOGwnnk-24" target="FUMP1IapKdVBmDOGwnnk-25">
          <mxGeometry relative="1" as="geometry" />
        </mxCell>
        <mxCell id="FUMP1IapKdVBmDOGwnnk-23" style="edgeStyle=orthogonalEdgeStyle;rounded=1;orthogonalLoop=1;jettySize=auto;html=1;entryX=0.5;entryY=1;entryDx=0;entryDy=0;" edge="1" parent="FUMP1IapKdVBmDOGwnnk-17" source="FUMP1IapKdVBmDOGwnnk-24" target="FUMP1IapKdVBmDOGwnnk-27">
          <mxGeometry relative="1" as="geometry" />
        </mxCell>
        <mxCell id="FUMP1IapKdVBmDOGwnnk-24" value="Submit?" style="rhombus;whiteSpace=wrap;html=1;rounded=1;" vertex="1" parent="FUMP1IapKdVBmDOGwnnk-17">
          <mxGeometry x="198" y="60" width="80" height="50" as="geometry" />
        </mxCell>
        <mxCell id="FUMP1IapKdVBmDOGwnnk-25" value="Status Submitted" style="whiteSpace=wrap;html=1;rounded=1;" vertex="1" parent="FUMP1IapKdVBmDOGwnnk-17">
          <mxGeometry x="299" y="68" width="59" height="34" as="geometry" />
        </mxCell>
        <mxCell id="FUMP1IapKdVBmDOGwnnk-26" style="edgeStyle=orthogonalEdgeStyle;rounded=1;orthogonalLoop=1;jettySize=auto;html=1;entryX=0.5;entryY=0;entryDx=0;entryDy=0;" edge="1" parent="FUMP1IapKdVBmDOGwnnk-17" source="FUMP1IapKdVBmDOGwnnk-27" target="FUMP1IapKdVBmDOGwnnk-21">
          <mxGeometry relative="1" as="geometry" />
        </mxCell>
        <mxCell id="FUMP1IapKdVBmDOGwnnk-27" value="Status Draft" style="whiteSpace=wrap;html=1;rounded=1;" vertex="1" parent="FUMP1IapKdVBmDOGwnnk-17">
          <mxGeometry x="208.5" y="8" width="59" height="34" as="geometry" />
        </mxCell>
        <mxCell id="FUMP1IapKdVBmDOGwnnk-28" value="No" style="text;html=1;align=center;verticalAlign=middle;whiteSpace=wrap;rounded=1;" vertex="1" parent="FUMP1IapKdVBmDOGwnnk-17">
          <mxGeometry x="242.5" y="40" width="25" height="30" as="geometry" />
        </mxCell>
        <mxCell id="FUMP1IapKdVBmDOGwnnk-29" value="Yes" style="text;html=1;align=center;verticalAlign=middle;whiteSpace=wrap;rounded=1;" vertex="1" parent="FUMP1IapKdVBmDOGwnnk-17">
          <mxGeometry x="272" y="80" width="25" height="30" as="geometry" />
        </mxCell>
        <mxCell id="FUMP1IapKdVBmDOGwnnk-30" value="IT Support" style="swimlane;horizontal=0;whiteSpace=wrap;html=1;rounded=1;" vertex="1" parent="1">
          <mxGeometry x="468" y="776" width="367" height="61" as="geometry" />
        </mxCell>
        <mxCell id="FUMP1IapKdVBmDOGwnnk-31" style="edgeStyle=orthogonalEdgeStyle;rounded=1;orthogonalLoop=1;jettySize=auto;html=1;entryX=1;entryY=0.5;entryDx=0;entryDy=0;" edge="1" parent="FUMP1IapKdVBmDOGwnnk-30" source="FUMP1IapKdVBmDOGwnnk-32" target="FUMP1IapKdVBmDOGwnnk-40">
          <mxGeometry relative="1" as="geometry">
            <Array as="points" />
            <mxPoint x="266.5" y="66.5" as="targetPoint" />
          </mxGeometry>
        </mxCell>
        <mxCell id="FUMP1IapKdVBmDOGwnnk-32" value="Resolve ticket" style="rounded=1;whiteSpace=wrap;html=1;" vertex="1" parent="FUMP1IapKdVBmDOGwnnk-30">
          <mxGeometry x="184.75" y="12.75" width="121" height="37" as="geometry" />
        </mxCell>
        <mxCell id="FUMP1IapKdVBmDOGwnnk-40" value="End" style="ellipse;whiteSpace=wrap;html=1;rounded=1;" vertex="1" parent="FUMP1IapKdVBmDOGwnnk-30">
          <mxGeometry x="40" y="14.5" width="39" height="33.5" as="geometry" />
        </mxCell>
        <mxCell id="FUMP1IapKdVBmDOGwnnk-43" style="edgeStyle=orthogonalEdgeStyle;rounded=1;orthogonalLoop=1;jettySize=auto;html=1;entryX=0.5;entryY=0;entryDx=0;entryDy=0;" edge="1" parent="1" source="FUMP1IapKdVBmDOGwnnk-25" target="FUMP1IapKdVBmDOGwnnk-32">
          <mxGeometry relative="1" as="geometry">
            <Array as="points">
              <mxPoint x="797" y="768" />
              <mxPoint x="713" y="768" />
              <mxPoint x="713" y="779" />
              <mxPoint x="713" y="779" />
            </Array>
          </mxGeometry>
        </mxCell>
        <mxCell id="FUMP1IapKdVBmDOGwnnk-44" value="System" style="swimlane;horizontal=0;whiteSpace=wrap;html=1;rounded=1;" vertex="1" parent="1">
          <mxGeometry x="468" y="837" width="367" height="72" as="geometry" />
        </mxCell>
        <mxCell id="FUMP1IapKdVBmDOGwnnk-45" value="Email Notification" style="shape=process;whiteSpace=wrap;html=1;backgroundOutline=1;rounded=1;" vertex="1" parent="FUMP1IapKdVBmDOGwnnk-44">
          <mxGeometry x="238" y="17" width="87.75" height="38" as="geometry" />
        </mxCell>
        <mxCell id="FUMP1IapKdVBmDOGwnnk-46" value="Email Notification" style="shape=process;whiteSpace=wrap;html=1;backgroundOutline=1;rounded=1;" vertex="1" parent="FUMP1IapKdVBmDOGwnnk-44">
          <mxGeometry x="97" y="17" width="87.75" height="38" as="geometry" />
        </mxCell>
        <mxCell id="FUMP1IapKdVBmDOGwnnk-47" style="edgeStyle=orthogonalEdgeStyle;rounded=1;orthogonalLoop=1;jettySize=auto;html=1;entryX=1;entryY=0.5;entryDx=0;entryDy=0;" edge="1" parent="1" source="FUMP1IapKdVBmDOGwnnk-25" target="FUMP1IapKdVBmDOGwnnk-45">
          <mxGeometry relative="1" as="geometry">
            <Array as="points">
              <mxPoint x="816" y="873" />
            </Array>
          </mxGeometry>
        </mxCell>
        <mxCell id="FUMP1IapKdVBmDOGwnnk-49" style="edgeStyle=orthogonalEdgeStyle;rounded=1;orthogonalLoop=1;jettySize=auto;html=1;entryX=0.432;entryY=0.013;entryDx=0;entryDy=0;entryPerimeter=0;" edge="1" parent="1" source="FUMP1IapKdVBmDOGwnnk-32" target="FUMP1IapKdVBmDOGwnnk-46">
          <mxGeometry relative="1" as="geometry">
            <Array as="points">
              <mxPoint x="603" y="843" />
            </Array>
          </mxGeometry>
        </mxCell>
        <mxCell id="FUMP1IapKdVBmDOGwnnk-68" value="System" style="swimlane;horizontal=0;whiteSpace=wrap;html=1;rounded=1;" vertex="1" parent="1">
          <mxGeometry x="61" y="695" width="367" height="61" as="geometry" />
        </mxCell>
        <mxCell id="FUMP1IapKdVBmDOGwnnk-82" style="edgeStyle=orthogonalEdgeStyle;rounded=1;orthogonalLoop=1;jettySize=auto;html=1;" edge="1" parent="FUMP1IapKdVBmDOGwnnk-68" source="FUMP1IapKdVBmDOGwnnk-69" target="FUMP1IapKdVBmDOGwnnk-81">
          <mxGeometry relative="1" as="geometry" />
        </mxCell>
        <mxCell id="FUMP1IapKdVBmDOGwnnk-69" value="Email Notification" style="shape=process;whiteSpace=wrap;html=1;backgroundOutline=1;rounded=1;" vertex="1" parent="FUMP1IapKdVBmDOGwnnk-68">
          <mxGeometry x="235" y="17" width="73" height="38" as="geometry" />
        </mxCell>
        <mxCell id="FUMP1IapKdVBmDOGwnnk-75" style="edgeStyle=orthogonalEdgeStyle;rounded=1;orthogonalLoop=1;jettySize=auto;html=1;entryX=0;entryY=0.5;entryDx=0;entryDy=0;" edge="1" parent="FUMP1IapKdVBmDOGwnnk-68" source="FUMP1IapKdVBmDOGwnnk-70" target="FUMP1IapKdVBmDOGwnnk-74">
          <mxGeometry relative="1" as="geometry" />
        </mxCell>
        <mxCell id="FUMP1IapKdVBmDOGwnnk-70" value="Validate time" style="shape=process;whiteSpace=wrap;html=1;backgroundOutline=1;rounded=1;" vertex="1" parent="FUMP1IapKdVBmDOGwnnk-68">
          <mxGeometry x="32" y="17" width="67" height="38" as="geometry" />
        </mxCell>
        <mxCell id="FUMP1IapKdVBmDOGwnnk-76" style="edgeStyle=orthogonalEdgeStyle;rounded=1;orthogonalLoop=1;jettySize=auto;html=1;entryX=0;entryY=0.5;entryDx=0;entryDy=0;" edge="1" parent="FUMP1IapKdVBmDOGwnnk-68" source="FUMP1IapKdVBmDOGwnnk-74" target="FUMP1IapKdVBmDOGwnnk-69">
          <mxGeometry relative="1" as="geometry" />
        </mxCell>
        <mxCell id="FUMP1IapKdVBmDOGwnnk-74" value="Valid?" style="rhombus;whiteSpace=wrap;html=1;rounded=1;" vertex="1" parent="FUMP1IapKdVBmDOGwnnk-68">
          <mxGeometry x="132" y="11" width="71" height="50" as="geometry" />
        </mxCell>
        <mxCell id="FUMP1IapKdVBmDOGwnnk-50" value="Basic User" style="swimlane;horizontal=0;whiteSpace=wrap;html=1;rounded=1;" vertex="1" parent="FUMP1IapKdVBmDOGwnnk-68">
          <mxGeometry y="-69" width="367" height="69" as="geometry" />
        </mxCell>
        <mxCell id="FUMP1IapKdVBmDOGwnnk-51" value="" style="edgeStyle=orthogonalEdgeStyle;rounded=1;orthogonalLoop=1;jettySize=auto;html=1;" edge="1" parent="FUMP1IapKdVBmDOGwnnk-50" source="FUMP1IapKdVBmDOGwnnk-52" target="FUMP1IapKdVBmDOGwnnk-54">
          <mxGeometry relative="1" as="geometry" />
        </mxCell>
        <mxCell id="FUMP1IapKdVBmDOGwnnk-52" value="Start" style="ellipse;whiteSpace=wrap;html=1;rounded=1;" vertex="1" parent="FUMP1IapKdVBmDOGwnnk-50">
          <mxGeometry x="34" y="19.5" width="46" height="30" as="geometry" />
        </mxCell>
        <mxCell id="FUMP1IapKdVBmDOGwnnk-54" value="Create/Edit Meeting Request" style="rounded=1;whiteSpace=wrap;html=1;" vertex="1" parent="FUMP1IapKdVBmDOGwnnk-50">
          <mxGeometry x="102" y="9.25" width="72" height="50.5" as="geometry" />
        </mxCell>
        <mxCell id="FUMP1IapKdVBmDOGwnnk-78" value="No" style="text;html=1;align=center;verticalAlign=middle;whiteSpace=wrap;rounded=1;" vertex="1" parent="FUMP1IapKdVBmDOGwnnk-50">
          <mxGeometry x="250" y="43" width="25" height="30" as="geometry" />
        </mxCell>
        <mxCell id="FUMP1IapKdVBmDOGwnnk-77" style="edgeStyle=orthogonalEdgeStyle;rounded=1;orthogonalLoop=1;jettySize=auto;html=1;entryX=1;entryY=0.5;entryDx=0;entryDy=0;exitX=0.5;exitY=0;exitDx=0;exitDy=0;" edge="1" parent="FUMP1IapKdVBmDOGwnnk-68" source="FUMP1IapKdVBmDOGwnnk-74" target="FUMP1IapKdVBmDOGwnnk-54">
          <mxGeometry relative="1" as="geometry">
            <Array as="points">
              <mxPoint x="167" y="5" />
              <mxPoint x="251" y="5" />
              <mxPoint x="251" y="-34" />
            </Array>
          </mxGeometry>
        </mxCell>
        <mxCell id="FUMP1IapKdVBmDOGwnnk-73" style="edgeStyle=orthogonalEdgeStyle;rounded=1;orthogonalLoop=1;jettySize=auto;html=1;entryX=0.5;entryY=0;entryDx=0;entryDy=0;" edge="1" parent="FUMP1IapKdVBmDOGwnnk-68" source="FUMP1IapKdVBmDOGwnnk-54" target="FUMP1IapKdVBmDOGwnnk-70">
          <mxGeometry relative="1" as="geometry">
            <Array as="points">
              <mxPoint x="144" y="7" />
              <mxPoint x="66" y="7" />
              <mxPoint x="66" y="17" />
            </Array>
          </mxGeometry>
        </mxCell>
        <mxCell id="FUMP1IapKdVBmDOGwnnk-62" value="Yes" style="text;html=1;align=center;verticalAlign=middle;whiteSpace=wrap;rounded=1;" vertex="1" parent="FUMP1IapKdVBmDOGwnnk-68">
          <mxGeometry x="199" y="32" width="25" height="30" as="geometry" />
        </mxCell>
        <mxCell id="FUMP1IapKdVBmDOGwnnk-81" value="End" style="ellipse;whiteSpace=wrap;html=1;rounded=1;" vertex="1" parent="FUMP1IapKdVBmDOGwnnk-68">
          <mxGeometry x="328" y="24.5" width="33" height="23" as="geometry" />
        </mxCell>
        <mxCell id="FUMP1IapKdVBmDOGwnnk-79" value="Azure Active Directory" style="text;html=1;align=center;verticalAlign=middle;whiteSpace=wrap;rounded=1;" vertex="1" parent="1">
          <mxGeometry x="58" y="479.5" width="91.13" height="30" as="geometry" />
        </mxCell>
        <mxCell id="FUMP1IapKdVBmDOGwnnk-93" style="edgeStyle=orthogonalEdgeStyle;rounded=1;orthogonalLoop=1;jettySize=auto;html=1;" edge="1" parent="1" source="FUMP1IapKdVBmDOGwnnk-83" target="FUMP1IapKdVBmDOGwnnk-89">
          <mxGeometry relative="1" as="geometry">
            <Array as="points">
              <mxPoint x="268" y="1340" />
              <mxPoint x="268" y="1194" />
            </Array>
          </mxGeometry>
        </mxCell>
        <mxCell id="FUMP1IapKdVBmDOGwnnk-94" style="edgeStyle=orthogonalEdgeStyle;rounded=1;orthogonalLoop=1;jettySize=auto;html=1;entryX=0;entryY=0.5;entryDx=0;entryDy=0;" edge="1" parent="1" source="FUMP1IapKdVBmDOGwnnk-83" target="FUMP1IapKdVBmDOGwnnk-85">
          <mxGeometry relative="1" as="geometry" />
        </mxCell>
        <mxCell id="FUMP1IapKdVBmDOGwnnk-95" style="edgeStyle=orthogonalEdgeStyle;rounded=1;orthogonalLoop=1;jettySize=auto;html=1;entryX=0;entryY=0.5;entryDx=0;entryDy=0;" edge="1" parent="1" source="FUMP1IapKdVBmDOGwnnk-83" target="FUMP1IapKdVBmDOGwnnk-87">
          <mxGeometry relative="1" as="geometry" />
        </mxCell>
        <mxCell id="FUMP1IapKdVBmDOGwnnk-96" style="edgeStyle=orthogonalEdgeStyle;rounded=1;orthogonalLoop=1;jettySize=auto;html=1;entryX=0;entryY=0.5;entryDx=0;entryDy=0;" edge="1" parent="1" target="FUMP1IapKdVBmDOGwnnk-92">
          <mxGeometry relative="1" as="geometry">
            <mxPoint x="228" y="1341" as="sourcePoint" />
            <mxPoint x="310" y="1465" as="targetPoint" />
            <Array as="points">
              <mxPoint x="228" y="1339" />
              <mxPoint x="268" y="1339" />
              <mxPoint x="268" y="1429" />
              <mxPoint x="308" y="1429" />
            </Array>
          </mxGeometry>
        </mxCell>
        <mxCell id="FUMP1IapKdVBmDOGwnnk-83" value="SUPPORT CENTER" style="rounded=1;whiteSpace=wrap;html=1;" vertex="1" parent="1">
          <mxGeometry x="108" y="1320" width="120" height="39" as="geometry" />
        </mxCell>
        <mxCell id="FUMP1IapKdVBmDOGwnnk-97" style="edgeStyle=orthogonalEdgeStyle;rounded=1;orthogonalLoop=1;jettySize=auto;html=1;entryX=0;entryY=0.5;entryDx=0;entryDy=0;" edge="1" parent="1" source="FUMP1IapKdVBmDOGwnnk-85" target="FUMP1IapKdVBmDOGwnnk-86">
          <mxGeometry relative="1" as="geometry" />
        </mxCell>
        <mxCell id="FUMP1IapKdVBmDOGwnnk-98" style="edgeStyle=orthogonalEdgeStyle;rounded=1;orthogonalLoop=1;jettySize=auto;html=1;entryX=0;entryY=0.5;entryDx=0;entryDy=0;" edge="1" parent="1" source="FUMP1IapKdVBmDOGwnnk-85" target="FUMP1IapKdVBmDOGwnnk-88">
          <mxGeometry relative="1" as="geometry" />
        </mxCell>
        <mxCell id="FUMP1IapKdVBmDOGwnnk-85" value="CREATE TICKET" style="rounded=1;whiteSpace=wrap;html=1;fillColor=#d5e8d4;strokeColor=#82b366;" vertex="1" parent="1">
          <mxGeometry x="308" y="1244" width="120" height="39" as="geometry" />
        </mxCell>
        <mxCell id="FUMP1IapKdVBmDOGwnnk-105" style="edgeStyle=orthogonalEdgeStyle;rounded=1;orthogonalLoop=1;jettySize=auto;html=1;entryX=0;entryY=0.5;entryDx=0;entryDy=0;" edge="1" parent="1" source="FUMP1IapKdVBmDOGwnnk-86" target="FUMP1IapKdVBmDOGwnnk-103">
          <mxGeometry relative="1" as="geometry">
            <Array as="points">
              <mxPoint x="604" y="1230" />
              <mxPoint x="604" y="1177" />
            </Array>
          </mxGeometry>
        </mxCell>
        <mxCell id="FUMP1IapKdVBmDOGwnnk-106" style="edgeStyle=orthogonalEdgeStyle;rounded=1;orthogonalLoop=1;jettySize=auto;html=1;entryX=0;entryY=0.5;entryDx=0;entryDy=0;" edge="1" parent="1" source="FUMP1IapKdVBmDOGwnnk-86" target="FUMP1IapKdVBmDOGwnnk-104">
          <mxGeometry relative="1" as="geometry" />
        </mxCell>
        <mxCell id="FUMP1IapKdVBmDOGwnnk-86" value="ASSIGN/RE-ASSIGN" style="rounded=1;whiteSpace=wrap;html=1;fillColor=#d5e8d4;strokeColor=#82b366;" vertex="1" parent="1">
          <mxGeometry x="476" y="1210" width="120" height="39" as="geometry" />
        </mxCell>
        <mxCell id="FUMP1IapKdVBmDOGwnnk-99" style="edgeStyle=orthogonalEdgeStyle;rounded=1;orthogonalLoop=1;jettySize=auto;html=1;entryX=0;entryY=0.5;entryDx=0;entryDy=0;" edge="1" parent="1" source="FUMP1IapKdVBmDOGwnnk-87" target="FUMP1IapKdVBmDOGwnnk-90">
          <mxGeometry relative="1" as="geometry" />
        </mxCell>
        <mxCell id="FUMP1IapKdVBmDOGwnnk-100" style="edgeStyle=orthogonalEdgeStyle;rounded=1;orthogonalLoop=1;jettySize=auto;html=1;entryX=0;entryY=0.5;entryDx=0;entryDy=0;" edge="1" parent="1" source="FUMP1IapKdVBmDOGwnnk-87" target="FUMP1IapKdVBmDOGwnnk-91">
          <mxGeometry relative="1" as="geometry" />
        </mxCell>
        <mxCell id="FUMP1IapKdVBmDOGwnnk-87" value="ESCALATION MECHANISM" style="rounded=1;whiteSpace=wrap;html=1;fillColor=#d5e8d4;strokeColor=#82b366;" vertex="1" parent="1">
          <mxGeometry x="308" y="1341" width="120" height="39" as="geometry" />
        </mxCell>
        <mxCell id="FUMP1IapKdVBmDOGwnnk-88" value="RE-CATEGORIZE" style="rounded=1;whiteSpace=wrap;html=1;" vertex="1" parent="1">
          <mxGeometry x="476" y="1267" width="120" height="39" as="geometry" />
        </mxCell>
        <mxCell id="FUMP1IapKdVBmDOGwnnk-89" value="MASTER DATA" style="rounded=1;whiteSpace=wrap;html=1;fillColor=#d5e8d4;strokeColor=#82b366;" vertex="1" parent="1">
          <mxGeometry x="308" y="1174" width="120" height="39" as="geometry" />
        </mxCell>
        <mxCell id="FUMP1IapKdVBmDOGwnnk-90" value="ASSIGN ESCALTION" style="rounded=1;whiteSpace=wrap;html=1;fillColor=#d5e8d4;strokeColor=#82b366;" vertex="1" parent="1">
          <mxGeometry x="476" y="1316" width="120" height="39" as="geometry" />
        </mxCell>
        <mxCell id="FUMP1IapKdVBmDOGwnnk-91" value="ON-TIME ESCALATION" style="rounded=1;whiteSpace=wrap;html=1;" vertex="1" parent="1">
          <mxGeometry x="476" y="1366" width="120" height="39" as="geometry" />
        </mxCell>
        <mxCell id="FUMP1IapKdVBmDOGwnnk-92" value="REPORT DASHBOARD" style="rounded=1;whiteSpace=wrap;html=1;" vertex="1" parent="1">
          <mxGeometry x="308" y="1409" width="120" height="39" as="geometry" />
        </mxCell>
        <mxCell id="FUMP1IapKdVBmDOGwnnk-103" value="Member assign/re-assign" style="rounded=1;whiteSpace=wrap;html=1;" vertex="1" parent="1">
          <mxGeometry x="624" y="1158" width="120" height="39" as="geometry" />
        </mxCell>
        <mxCell id="FUMP1IapKdVBmDOGwnnk-104" value="Manager assign/re-assign" style="rounded=1;whiteSpace=wrap;html=1;fillColor=#d5e8d4;strokeColor=#82b366;" vertex="1" parent="1">
          <mxGeometry x="624" y="1210" width="120" height="39" as="geometry" />
        </mxCell>
        <mxCell id="FUMP1IapKdVBmDOGwnnk-110" style="edgeStyle=orthogonalEdgeStyle;rounded=1;orthogonalLoop=1;jettySize=auto;html=1;entryX=0;entryY=0.5;entryDx=0;entryDy=0;" edge="1" parent="1" source="FUMP1IapKdVBmDOGwnnk-107" target="FUMP1IapKdVBmDOGwnnk-109">
          <mxGeometry relative="1" as="geometry" />
        </mxCell>
        <mxCell id="FUMP1IapKdVBmDOGwnnk-120" value="" style="edgeStyle=orthogonalEdgeStyle;rounded=1;orthogonalLoop=1;jettySize=auto;html=1;" edge="1" parent="1" source="FUMP1IapKdVBmDOGwnnk-107" target="FUMP1IapKdVBmDOGwnnk-119">
          <mxGeometry relative="1" as="geometry" />
        </mxCell>
        <mxCell id="FUMP1IapKdVBmDOGwnnk-107" value="Create new ticket" style="rounded=1;whiteSpace=wrap;html=1;" vertex="1" parent="1">
          <mxGeometry x="122.38" y="1654" width="99" height="41" as="geometry" />
        </mxCell>
        <mxCell id="FUMP1IapKdVBmDOGwnnk-111" style="edgeStyle=orthogonalEdgeStyle;rounded=1;orthogonalLoop=1;jettySize=auto;html=1;entryX=0.5;entryY=0;entryDx=0;entryDy=0;" edge="1" parent="1" source="FUMP1IapKdVBmDOGwnnk-108" target="FUMP1IapKdVBmDOGwnnk-107">
          <mxGeometry relative="1" as="geometry" />
        </mxCell>
        <mxCell id="FUMP1IapKdVBmDOGwnnk-108" value="START" style="ellipse;whiteSpace=wrap;html=1;rounded=1;" vertex="1" parent="1">
          <mxGeometry x="133.43" y="1589" width="76.88" height="36" as="geometry" />
        </mxCell>
        <mxCell id="FUMP1IapKdVBmDOGwnnk-109" value="Assign Escalation" style="shape=process;whiteSpace=wrap;html=1;backgroundOutline=1;rounded=0;" vertex="1" parent="1">
          <mxGeometry x="241" y="1651" width="88" height="47" as="geometry" />
        </mxCell>
        <mxCell id="FUMP1IapKdVBmDOGwnnk-115" style="edgeStyle=orthogonalEdgeStyle;rounded=1;orthogonalLoop=1;jettySize=auto;html=1;entryX=0;entryY=0.5;entryDx=0;entryDy=0;" edge="1" parent="1" source="FUMP1IapKdVBmDOGwnnk-112" target="FUMP1IapKdVBmDOGwnnk-114">
          <mxGeometry relative="1" as="geometry" />
        </mxCell>
        <mxCell id="FUMP1IapKdVBmDOGwnnk-134" value="" style="edgeStyle=orthogonalEdgeStyle;rounded=1;orthogonalLoop=1;jettySize=auto;html=1;" edge="1" parent="1" source="FUMP1IapKdVBmDOGwnnk-112" target="FUMP1IapKdVBmDOGwnnk-133">
          <mxGeometry relative="1" as="geometry" />
        </mxCell>
        <mxCell id="FUMP1IapKdVBmDOGwnnk-112" value="Assign ticket" style="rounded=1;whiteSpace=wrap;html=1;" vertex="1" parent="1">
          <mxGeometry x="126.94" y="1818.25" width="89.88" height="36.5" as="geometry" />
        </mxCell>
        <mxCell id="FUMP1IapKdVBmDOGwnnk-114" value="On-time Escalation" style="shape=process;whiteSpace=wrap;html=1;backgroundOutline=1;rounded=0;" vertex="1" parent="1">
          <mxGeometry x="241" y="1813" width="88" height="47" as="geometry" />
        </mxCell>
        <mxCell id="FUMP1IapKdVBmDOGwnnk-124" style="edgeStyle=orthogonalEdgeStyle;rounded=1;orthogonalLoop=1;jettySize=auto;html=1;entryX=0.5;entryY=0;entryDx=0;entryDy=0;" edge="1" parent="1" source="FUMP1IapKdVBmDOGwnnk-119" target="FUMP1IapKdVBmDOGwnnk-112">
          <mxGeometry relative="1" as="geometry" />
        </mxCell>
        <mxCell id="FUMP1IapKdVBmDOGwnnk-126" value="" style="edgeStyle=orthogonalEdgeStyle;rounded=1;orthogonalLoop=1;jettySize=auto;html=1;" edge="1" parent="1" source="FUMP1IapKdVBmDOGwnnk-119" target="FUMP1IapKdVBmDOGwnnk-125">
          <mxGeometry relative="1" as="geometry" />
        </mxCell>
        <mxCell id="FUMP1IapKdVBmDOGwnnk-119" value="Check category?" style="rhombus;whiteSpace=wrap;html=1;rounded=1;" vertex="1" parent="1">
          <mxGeometry x="131.88" y="1715" width="80" height="80" as="geometry" />
        </mxCell>
        <mxCell id="FUMP1IapKdVBmDOGwnnk-131" style="edgeStyle=orthogonalEdgeStyle;rounded=1;orthogonalLoop=1;jettySize=auto;html=1;entryX=0.5;entryY=0;entryDx=0;entryDy=0;" edge="1" parent="1" source="FUMP1IapKdVBmDOGwnnk-125" target="FUMP1IapKdVBmDOGwnnk-130">
          <mxGeometry relative="1" as="geometry" />
        </mxCell>
        <mxCell id="FUMP1IapKdVBmDOGwnnk-125" value="Re-categorize" style="whiteSpace=wrap;html=1;rounded=1;" vertex="1" parent="1">
          <mxGeometry x="19" y="1736" width="77.88" height="38" as="geometry" />
        </mxCell>
        <mxCell id="FUMP1IapKdVBmDOGwnnk-132" style="edgeStyle=orthogonalEdgeStyle;rounded=1;orthogonalLoop=1;jettySize=auto;html=1;entryX=0;entryY=0.5;entryDx=0;entryDy=0;" edge="1" parent="1">
          <mxGeometry relative="1" as="geometry">
            <mxPoint x="96.88" y="1836.8700000000001" as="sourcePoint" />
            <mxPoint x="126.94" y="1836.12" as="targetPoint" />
          </mxGeometry>
        </mxCell>
        <mxCell id="FUMP1IapKdVBmDOGwnnk-130" value="Manager review" style="whiteSpace=wrap;html=1;rounded=1;" vertex="1" parent="1">
          <mxGeometry x="19" y="1818.25" width="77.88" height="38" as="geometry" />
        </mxCell>
        <mxCell id="FUMP1IapKdVBmDOGwnnk-136" value="" style="edgeStyle=orthogonalEdgeStyle;rounded=1;orthogonalLoop=1;jettySize=auto;html=1;" edge="1" parent="1" source="FUMP1IapKdVBmDOGwnnk-133" target="FUMP1IapKdVBmDOGwnnk-135">
          <mxGeometry relative="1" as="geometry" />
        </mxCell>
        <mxCell id="FUMP1IapKdVBmDOGwnnk-193" style="edgeStyle=orthogonalEdgeStyle;rounded=1;orthogonalLoop=1;jettySize=auto;html=1;entryX=0.5;entryY=0;entryDx=0;entryDy=0;" edge="1" parent="1" source="FUMP1IapKdVBmDOGwnnk-133" target="FUMP1IapKdVBmDOGwnnk-191">
          <mxGeometry relative="1" as="geometry" />
        </mxCell>
        <mxCell id="FUMP1IapKdVBmDOGwnnk-133" value="Resolve?" style="rhombus;whiteSpace=wrap;html=1;rounded=1;" vertex="1" parent="1">
          <mxGeometry x="131.87" y="1878" width="80" height="50" as="geometry" />
        </mxCell>
        <mxCell id="FUMP1IapKdVBmDOGwnnk-197" style="edgeStyle=orthogonalEdgeStyle;rounded=1;orthogonalLoop=1;jettySize=auto;html=1;entryX=0.5;entryY=0;entryDx=0;entryDy=0;" edge="1" parent="1" source="FUMP1IapKdVBmDOGwnnk-135" target="FUMP1IapKdVBmDOGwnnk-133">
          <mxGeometry relative="1" as="geometry">
            <Array as="points">
              <mxPoint x="58" y="1862" />
              <mxPoint x="172" y="1862" />
            </Array>
          </mxGeometry>
        </mxCell>
        <mxCell id="FUMP1IapKdVBmDOGwnnk-135" value="Re-assign ticket" style="whiteSpace=wrap;html=1;rounded=1;" vertex="1" parent="1">
          <mxGeometry x="16" y="1889" width="83.88" height="28" as="geometry" />
        </mxCell>
        <mxCell id="FUMP1IapKdVBmDOGwnnk-138" value="End" style="ellipse;whiteSpace=wrap;html=1;rounded=1;" vertex="1" parent="1">
          <mxGeometry x="256.93" y="1948" width="56.13" height="34" as="geometry" />
        </mxCell>
        <mxCell id="FUMP1IapKdVBmDOGwnnk-144" value="" style="edgeStyle=orthogonalEdgeStyle;rounded=1;orthogonalLoop=1;jettySize=auto;html=1;" edge="1" parent="1" source="FUMP1IapKdVBmDOGwnnk-142" target="FUMP1IapKdVBmDOGwnnk-143">
          <mxGeometry relative="1" as="geometry" />
        </mxCell>
        <mxCell id="FUMP1IapKdVBmDOGwnnk-142" value="Assign Escalation" style="shape=process;whiteSpace=wrap;html=1;backgroundOutline=1;rounded=0;" vertex="1" parent="1">
          <mxGeometry x="373.5" y="1589" width="88" height="47" as="geometry" />
        </mxCell>
        <mxCell id="FUMP1IapKdVBmDOGwnnk-148" value="" style="edgeStyle=orthogonalEdgeStyle;rounded=1;orthogonalLoop=1;jettySize=auto;html=1;" edge="1" parent="1" source="FUMP1IapKdVBmDOGwnnk-143" target="FUMP1IapKdVBmDOGwnnk-147">
          <mxGeometry relative="1" as="geometry" />
        </mxCell>
        <mxCell id="FUMP1IapKdVBmDOGwnnk-151" value="" style="edgeStyle=orthogonalEdgeStyle;rounded=1;orthogonalLoop=1;jettySize=auto;html=1;" edge="1" parent="1" source="FUMP1IapKdVBmDOGwnnk-143" target="FUMP1IapKdVBmDOGwnnk-150">
          <mxGeometry relative="1" as="geometry" />
        </mxCell>
        <mxCell id="FUMP1IapKdVBmDOGwnnk-143" value="Assign ticket?" style="rhombus;whiteSpace=wrap;html=1;rounded=1;" vertex="1" parent="1">
          <mxGeometry x="359" y="1695" width="117" height="52.5" as="geometry" />
        </mxCell>
        <mxCell id="FUMP1IapKdVBmDOGwnnk-145" value="" style="pointerEvents=1;shadow=0;dashed=0;html=1;strokeColor=none;fillColor=#505050;labelPosition=center;verticalLabelPosition=bottom;verticalAlign=top;outlineConnect=0;align=center;shape=mxgraph.office.concepts.clock;rounded=1;" vertex="1" parent="1">
          <mxGeometry x="424.5" y="1654" width="22" height="21" as="geometry" />
        </mxCell>
        <mxCell id="FUMP1IapKdVBmDOGwnnk-147" value="End" style="ellipse;whiteSpace=wrap;html=1;rounded=1;" vertex="1" parent="1">
          <mxGeometry x="377.5" y="1906" width="80" height="32" as="geometry" />
        </mxCell>
        <mxCell id="FUMP1IapKdVBmDOGwnnk-153" value="" style="edgeStyle=orthogonalEdgeStyle;rounded=1;orthogonalLoop=1;jettySize=auto;html=1;" edge="1" parent="1" source="FUMP1IapKdVBmDOGwnnk-150" target="FUMP1IapKdVBmDOGwnnk-152">
          <mxGeometry relative="1" as="geometry" />
        </mxCell>
        <mxCell id="FUMP1IapKdVBmDOGwnnk-150" value="Notify team leader" style="whiteSpace=wrap;html=1;rounded=1;" vertex="1" parent="1">
          <mxGeometry x="512.5" y="1700.63" width="70" height="41.25" as="geometry" />
        </mxCell>
        <mxCell id="FUMP1IapKdVBmDOGwnnk-159" style="edgeStyle=orthogonalEdgeStyle;rounded=1;orthogonalLoop=1;jettySize=auto;html=1;entryX=0.5;entryY=0;entryDx=0;entryDy=0;" edge="1" parent="1" source="FUMP1IapKdVBmDOGwnnk-152" target="FUMP1IapKdVBmDOGwnnk-157">
          <mxGeometry relative="1" as="geometry" />
        </mxCell>
        <mxCell id="FUMP1IapKdVBmDOGwnnk-164" style="edgeStyle=orthogonalEdgeStyle;rounded=1;orthogonalLoop=1;jettySize=auto;html=1;" edge="1" parent="1" source="FUMP1IapKdVBmDOGwnnk-152">
          <mxGeometry relative="1" as="geometry">
            <mxPoint x="417.22223917643237" y="1803.75" as="targetPoint" />
          </mxGeometry>
        </mxCell>
        <mxCell id="FUMP1IapKdVBmDOGwnnk-152" value="Assign ticket?" style="rhombus;whiteSpace=wrap;html=1;rounded=1;" vertex="1" parent="1">
          <mxGeometry x="489" y="1777" width="117" height="53.5" as="geometry" />
        </mxCell>
        <mxCell id="FUMP1IapKdVBmDOGwnnk-155" value="" style="pointerEvents=1;shadow=0;dashed=0;html=1;strokeColor=none;fillColor=#505050;labelPosition=center;verticalLabelPosition=bottom;verticalAlign=top;outlineConnect=0;align=center;shape=mxgraph.office.concepts.clock;rounded=1;" vertex="1" parent="1">
          <mxGeometry x="556.5" y="1752" width="22" height="21" as="geometry" />
        </mxCell>
        <mxCell id="FUMP1IapKdVBmDOGwnnk-160" style="edgeStyle=orthogonalEdgeStyle;rounded=1;orthogonalLoop=1;jettySize=auto;html=1;entryX=0.5;entryY=0;entryDx=0;entryDy=0;" edge="1" parent="1" source="FUMP1IapKdVBmDOGwnnk-157" target="FUMP1IapKdVBmDOGwnnk-161">
          <mxGeometry relative="1" as="geometry">
            <mxPoint x="678" y="1856.37" as="targetPoint" />
          </mxGeometry>
        </mxCell>
        <mxCell id="FUMP1IapKdVBmDOGwnnk-157" value="Notify Manager" style="whiteSpace=wrap;html=1;rounded=1;" vertex="1" parent="1">
          <mxGeometry x="512.5" y="1848" width="70" height="35.25" as="geometry" />
        </mxCell>
        <mxCell id="FUMP1IapKdVBmDOGwnnk-163" style="edgeStyle=orthogonalEdgeStyle;rounded=1;orthogonalLoop=1;jettySize=auto;html=1;entryX=1;entryY=0.5;entryDx=0;entryDy=0;" edge="1" parent="1" source="FUMP1IapKdVBmDOGwnnk-161" target="FUMP1IapKdVBmDOGwnnk-147">
          <mxGeometry relative="1" as="geometry" />
        </mxCell>
        <mxCell id="FUMP1IapKdVBmDOGwnnk-161" value="Change ticket&#39;s status" style="whiteSpace=wrap;html=1;rounded=1;" vertex="1" parent="1">
          <mxGeometry x="512.5" y="1900" width="70" height="44" as="geometry" />
        </mxCell>
        <mxCell id="FUMP1IapKdVBmDOGwnnk-165" value="No" style="text;html=1;align=center;verticalAlign=middle;whiteSpace=wrap;rounded=1;" vertex="1" parent="1">
          <mxGeometry x="466.5" y="1700.63" width="40" height="23" as="geometry" />
        </mxCell>
        <mxCell id="FUMP1IapKdVBmDOGwnnk-166" value="No" style="text;html=1;align=center;verticalAlign=middle;whiteSpace=wrap;rounded=1;" vertex="1" parent="1">
          <mxGeometry x="542.5" y="1825" width="40" height="23" as="geometry" />
        </mxCell>
        <mxCell id="FUMP1IapKdVBmDOGwnnk-167" value="Yes" style="text;html=1;align=center;verticalAlign=middle;whiteSpace=wrap;rounded=1;" vertex="1" parent="1">
          <mxGeometry x="461.5" y="1780" width="40" height="23" as="geometry" />
        </mxCell>
        <mxCell id="FUMP1IapKdVBmDOGwnnk-168" value="Yes" style="text;html=1;align=center;verticalAlign=middle;whiteSpace=wrap;rounded=1;" vertex="1" parent="1">
          <mxGeometry x="381.5" y="1741.88" width="40" height="23" as="geometry" />
        </mxCell>
        <mxCell id="FUMP1IapKdVBmDOGwnnk-172" style="edgeStyle=orthogonalEdgeStyle;rounded=1;orthogonalLoop=1;jettySize=auto;html=1;" edge="1" parent="1" source="FUMP1IapKdVBmDOGwnnk-169" target="FUMP1IapKdVBmDOGwnnk-170">
          <mxGeometry relative="1" as="geometry" />
        </mxCell>
        <mxCell id="FUMP1IapKdVBmDOGwnnk-169" value="On-time Escalation" style="shape=process;whiteSpace=wrap;html=1;backgroundOutline=1;rounded=0;" vertex="1" parent="1">
          <mxGeometry x="638.5" y="1589" width="88" height="47" as="geometry" />
        </mxCell>
        <mxCell id="FUMP1IapKdVBmDOGwnnk-173" style="edgeStyle=orthogonalEdgeStyle;rounded=1;orthogonalLoop=1;jettySize=auto;html=1;" edge="1" parent="1" source="FUMP1IapKdVBmDOGwnnk-170" target="FUMP1IapKdVBmDOGwnnk-171">
          <mxGeometry relative="1" as="geometry" />
        </mxCell>
        <mxCell id="FUMP1IapKdVBmDOGwnnk-175" style="edgeStyle=orthogonalEdgeStyle;rounded=1;orthogonalLoop=1;jettySize=auto;html=1;entryX=0;entryY=0.5;entryDx=0;entryDy=0;" edge="1" parent="1" source="FUMP1IapKdVBmDOGwnnk-170" target="FUMP1IapKdVBmDOGwnnk-174">
          <mxGeometry relative="1" as="geometry" />
        </mxCell>
        <mxCell id="FUMP1IapKdVBmDOGwnnk-170" value="Close ticket?" style="rhombus;whiteSpace=wrap;html=1;rounded=1;" vertex="1" parent="1">
          <mxGeometry x="624" y="1665.25" width="117" height="52.5" as="geometry" />
        </mxCell>
        <mxCell id="FUMP1IapKdVBmDOGwnnk-171" value="End" style="ellipse;whiteSpace=wrap;html=1;rounded=1;" vertex="1" parent="1">
          <mxGeometry x="642.5" y="1786.25" width="80" height="32" as="geometry" />
        </mxCell>
        <mxCell id="FUMP1IapKdVBmDOGwnnk-176" style="edgeStyle=orthogonalEdgeStyle;rounded=1;orthogonalLoop=1;jettySize=auto;html=1;entryX=1;entryY=0.5;entryDx=0;entryDy=0;" edge="1" parent="1" source="FUMP1IapKdVBmDOGwnnk-174" target="FUMP1IapKdVBmDOGwnnk-171">
          <mxGeometry relative="1" as="geometry">
            <Array as="points">
              <mxPoint x="803.5" y="1802.25" />
            </Array>
          </mxGeometry>
        </mxCell>
        <mxCell id="FUMP1IapKdVBmDOGwnnk-174" value="Notify team leader" style="whiteSpace=wrap;html=1;rounded=1;" vertex="1" parent="1">
          <mxGeometry x="768.5" y="1670.88" width="70" height="41.25" as="geometry" />
        </mxCell>
        <mxCell id="FUMP1IapKdVBmDOGwnnk-177" value="" style="pointerEvents=1;shadow=0;dashed=0;html=1;strokeColor=none;fillColor=#505050;labelPosition=center;verticalLabelPosition=bottom;verticalAlign=top;outlineConnect=0;align=center;shape=mxgraph.office.concepts.clock;rounded=1;" vertex="1" parent="1">
          <mxGeometry x="689.5" y="1642" width="22" height="21" as="geometry" />
        </mxCell>
        <mxCell id="FUMP1IapKdVBmDOGwnnk-178" value="No" style="text;html=1;align=center;verticalAlign=middle;whiteSpace=wrap;rounded=1;" vertex="1" parent="1">
          <mxGeometry x="726.5" y="1670.88" width="40" height="23" as="geometry" />
        </mxCell>
        <mxCell id="FUMP1IapKdVBmDOGwnnk-180" value="Yes" style="text;html=1;align=center;verticalAlign=middle;whiteSpace=wrap;rounded=1;" vertex="1" parent="1">
          <mxGeometry x="680.5" y="1717.75" width="40" height="23" as="geometry" />
        </mxCell>
        <mxCell id="FUMP1IapKdVBmDOGwnnk-184" value="Main flow" style="text;html=1;align=center;verticalAlign=middle;whiteSpace=wrap;rounded=0;fontStyle=1" vertex="1" parent="1">
          <mxGeometry x="11.999999999999993" y="1566" width="60" height="30" as="geometry" />
        </mxCell>
        <mxCell id="FUMP1IapKdVBmDOGwnnk-185" value="Escalation flow" style="text;html=1;align=center;verticalAlign=middle;whiteSpace=wrap;rounded=0;fontStyle=1" vertex="1" parent="1">
          <mxGeometry x="351" y="1559" width="104" height="30" as="geometry" />
        </mxCell>
        <mxCell id="FUMP1IapKdVBmDOGwnnk-186" value="Escalation flow" style="text;html=1;align=center;verticalAlign=middle;whiteSpace=wrap;rounded=0;fontStyle=1" vertex="1" parent="1">
          <mxGeometry x="613" y="1559" width="104" height="30" as="geometry" />
        </mxCell>
        <mxCell id="FUMP1IapKdVBmDOGwnnk-187" value="Yes" style="text;html=1;align=center;verticalAlign=middle;whiteSpace=wrap;rounded=1;" vertex="1" parent="1">
          <mxGeometry x="175.76" y="1925" width="40" height="23" as="geometry" />
        </mxCell>
        <mxCell id="FUMP1IapKdVBmDOGwnnk-188" value="No" style="text;html=1;align=center;verticalAlign=middle;whiteSpace=wrap;rounded=1;" vertex="1" parent="1">
          <mxGeometry x="168" y="1790" width="40" height="23" as="geometry" />
        </mxCell>
        <mxCell id="FUMP1IapKdVBmDOGwnnk-189" value="Yes" style="text;html=1;align=center;verticalAlign=middle;whiteSpace=wrap;rounded=1;" vertex="1" parent="1">
          <mxGeometry x="103.82" y="1734" width="40" height="23" as="geometry" />
        </mxCell>
        <mxCell id="FUMP1IapKdVBmDOGwnnk-190" value="No" style="text;html=1;align=center;verticalAlign=middle;whiteSpace=wrap;rounded=1;" vertex="1" parent="1">
          <mxGeometry x="105" y="1881" width="40" height="23" as="geometry" />
        </mxCell>
        <mxCell id="FUMP1IapKdVBmDOGwnnk-195" style="edgeStyle=orthogonalEdgeStyle;rounded=1;orthogonalLoop=1;jettySize=auto;html=1;entryX=0;entryY=0.5;entryDx=0;entryDy=0;" edge="1" parent="1" source="FUMP1IapKdVBmDOGwnnk-191" target="FUMP1IapKdVBmDOGwnnk-138">
          <mxGeometry relative="1" as="geometry" />
        </mxCell>
        <mxCell id="FUMP1IapKdVBmDOGwnnk-191" value="Change ticket&#39;s status" style="whiteSpace=wrap;html=1;rounded=1;" vertex="1" parent="1">
          <mxGeometry x="129.93" y="1949" width="83.88" height="33" as="geometry" />
        </mxCell>
      </root>
    </mxGraphModel>
  </diagram>
</mxfile>
